<?xml version="1.0" standalone="no"?>
<!DOCTYPE svg PUBLIC "-//W3C//DTD SVG 1.1//EN" "http://www.w3.org/Graphics/SVG/1.1/DTD/svg11.dtd" >
<svg xmlns="http://www.w3.org/2000/svg">
  <metadata>Created by iconfont</metadata>
  <defs>
  <font id="iconfont" horiz-adv-x="1024">
    <font-face
      font-family="iconfont"
      font-weight="400"
      font-stretch="normal"
      units-per-em="1024"
      ascent="896"
      descent="-128"
    />
      <missing-glyph />
      
      <glyph glyph-name="xianshi" unicode="&#59023;" d="M512.128 76.992c-136.832 0-253.184 59.328-326.72 109.12C97.856 245.376 35.264 314.752 12.16 357.12a56.512 56.512 0 0 0 0 54.4c23.104 42.368 85.696 111.744 173.248 170.944 73.536 49.792 189.888 109.12 326.72 109.12 137.6 0 253.12-57.92 325.824-106.56 40.448-27.008 78.592-58.496 110.4-91.072 28.8-29.568 51.456-59.2 63.808-83.52 8.32-16.448 8.32-35.904 0-52.416-12.352-24.32-35.008-53.952-63.808-83.456a698.368 698.368 0 0 0-110.4-91.136c-72.704-48.512-188.288-106.496-325.76-106.496zM67.008 384.384c9.984-17.472 28.736-40.704 51.84-64.256 30.848-30.976 64.64-58.88 100.864-83.392 66.432-44.992 171.136-98.56 292.48-98.56 122.24 0 226.176 52.288 291.84 96.192 78.528 52.48 133.952 114.048 152.96 150.016-19.072 35.904-74.432 97.536-152.96 150.016-65.664 43.84-169.6 96.192-291.84 96.192-121.344 0-226.048-53.632-292.48-98.56-36.224-24.512-70.016-52.48-100.8-83.456-23.232-23.552-41.984-46.784-51.904-64.192zM511.808 213.12a171.392 171.392 0 0 0-171.2 171.264c0 94.4 76.8 171.2 171.2 171.2 94.4 0 171.2-76.8 171.2-171.2 0-94.464-76.8-171.264-171.2-171.264z m0 278.4a107.2 107.2 0 1 1 0-214.4 107.2 107.2 0 0 1 0 214.4z"  horiz-adv-x="1024" />
      
      <glyph glyph-name="yincang" unicode="&#59024;" d="M512 314.24c-181.568 0-350.912 89.472-441.984 233.536a30.528 30.528 0 1 0 51.712 32.64C201.6 454.016 351.232 375.488 512 375.488c160.832 0 310.4 78.528 390.272 204.928a30.528 30.528 0 1 0 51.712-32.64C862.912 403.776 693.568 314.304 512 314.304zM354.688 173.312a30.592 30.592 0 0 0-30.208 35.84l23.808 136.128a30.592 30.592 0 0 0 60.288-10.496l-23.808-136.192a30.656 30.656 0 0 0-30.08-25.28zM665.92 173.312a30.592 30.592 0 0 0-29.952 24.384l-28.096 136.128a30.528 30.528 0 1 0 59.904 12.352l28.16-136.128a30.528 30.528 0 0 0-30.08-36.736zM147.136 273.792a30.528 30.528 0 0 0-28.736 41.088l49.728 136.192a30.528 30.528 0 1 0 57.408-20.928l-49.664-136.256a30.528 30.528 0 0 0-28.8-20.096zM873.472 251.072a30.592 30.592 0 0 0-28.48 19.328l-54.016 136.192a30.592 30.592 0 0 0 56.832 22.528l54.08-136.192a30.592 30.592 0 0 0-28.416-41.856z"  horiz-adv-x="1024" />
      
      <glyph glyph-name="a-shangchuan1" unicode="&#59022;" d="M964.5568 583.3728C948.0192 758.8352 804.352 896 629.504 896 456.704 896 314.624 762.1632 295.2192 589.824 128 562.176 0 413.2352 0 233.3696 0 33.792 157.2864-128 351.3344-128h178.8928v331.264H286.3104l328.5504 361.472 328.4992-361.472h-237.4656V-128h201.728v1.536c180.3264 15.36 322.048 170.4448 322.048 359.8848 0 168.96-112.8448 310.3744-265.1136 349.952z"  horiz-adv-x="1229" />
      
      <glyph glyph-name="a-3-zidongpangu" unicode="&#59013;" d="M511.9 136c-87.6 0-174 18.9-249.8 54.6C188 225.5 125 275.8 79.9 336.1c-20.5 27.6-20.5 65.7 0 93.3C125 489.7 188 540 262.1 574.9c75.8 35.7 162.2 54.6 249.8 54.6 87.6 0 174-18.9 249.8-54.6 74-34.9 137.1-85.2 182.2-145.5 20.5-27.6 20.5-65.7 0-93.3-45.1-60.3-108.1-110.6-182.1-145.5-75.9-35.7-162.3-54.6-249.9-54.6z m0 438.5c-159.9 0-305.3-66.7-388.8-178.3-5.9-7.9-5.9-18.9 0-26.8C206.6 257.7 352 191.1 511.9 191.1s305.3 66.7 388.8 178.3c5.9 7.9 5.9 18.9 0 26.8-83.5 111.6-228.8 178.3-388.8 178.3z m0 0M511.9 244.5c-55.2 0-104.9 33.7-126 85.3-21.1 51.7-9.5 111.1 29.5 150.7 39 39.6 97.7 51.4 148.6 30 51-21.4 84.2-71.8 84.2-127.7 0-76.3-61-138.2-136.3-138.3z m0 221.5c-33.2 0-63.1-20.2-75.9-51.3-12.7-31.1-5.7-66.9 17.8-90.7 23.5-23.8 58.8-30.9 89.4-18.1 30.7 12.9 50.7 43.2 50.7 76.9 0 45.9-36.7 83.1-82 83.2z m0 0"  horiz-adv-x="1024" />
      
      <glyph glyph-name="a-5-jingzhunsiwei" unicode="&#59017;" d="M260.7 553h250.9L395.9 668.7 260.7 553z m-89.3 1.8l253.1 217c49.9 42.8 123.6 42.8 173.6 0l253.1-217 0.7-0.6c11.3-9.9 15.8-23.1 15-35.7v-486.6c0-49.1-39.8-88.9-88.9-88.9H244.6c-49.1 0-88.9 39.8-88.9 88.9V518.5c-1 13.9 4.9 27.5 15.7 36.3z m585.1 1.7L541.2 740.9c-22.1 19-54.7 19-76.8 0L430.7 712l155.5-155.5h170.3z m1.4-51.7h-493c-29.9 0-54.2-24.3-54.2-54.2v-392.8c0-29.9 24.3-54.2 54.2-54.2h493c29.9 0 54.2 24.3 54.2 54.2V450.6c-0.1 29.9-24.3 54.2-54.2 54.2z m-549-327.4h604.9v-62.6H208.9v62.6zM333.5 832.1c24.6 0 44.5-19.9 44.5-44.5 0-24.5-19.9-44.5-44.5-44.5S289 763 289 787.6s19.9 44.5 44.5 44.5z m-133.4-88.9c24.6 0 44.5-19.9 44.5-44.5s-19.9-44.5-44.5-44.5-44.5 19.9-44.5 44.5c0.1 24.6 20 44.5 44.5 44.5z m600.2 88.9c36.8 0 66.7-29.9 66.7-66.7 0-36.8-29.9-66.7-66.7-66.7-36.8 0-66.7 29.9-66.7 66.7 0 36.9 29.9 66.7 66.7 66.7z m0 0"  horiz-adv-x="1024" />
      
      <glyph glyph-name="a-11-nonghudaiyang" unicode="&#59018;" d="M813.8 284.20000000000005c-7.1 0-14.1 2.7-19.6 8.1-5.2 5.2-8.1 12.2-8.1 19.6 0 7.3 2.9 14.4 8.1 19.6l98.9 98.9c22.3 22.3 4.9 49.4-14.1 68.4L675.2 702.4c-16.3 16.3-27.7 20.6-34.2 21.7-4.9 0.5-11.9 0.5-21.7-9.2L422.1 517.7c28.8-18.5 61.4-20.6 82-2.7 35.3 31 85.8 85.8 86.4 86.4 10.3 11.4 27.7 12 39.1 1.6 11.4-10.3 12-27.7 1.6-39.1-2.2-2.2-53.2-57.6-90.7-90.7-48.9-42.9-126-32.6-179.8 23.9-10.3 10.9-10.3 28.2 0.5 38.6L579.6 754c38 38 88.5 33.7 134.7-12.5L918 537.8c49.4-49.4 54.9-105.9 14.1-146.7l-98.9-98.9c-5.3-5.3-12.4-8-19.4-8z m0 0M512.3-11.899999999999977c-3.8 0-8.1 0-12 0.5-23.9 3.3-46.7 14.7-64.6 32.6L214.6 242.89999999999998c-36.9 36.9-54.3 66.3-70.1 91.8-9.2 15.2-17.9 29.9-29.9 45.1-3.3 4.3-7.1 8.7-10.9 13-22.8 27.7-36.9 45.6-38 64.1 0 1.1 0 2.2-0.5 3.3-1.6 16.3-5.4 50.5 33.7 89.6l176.5 176.5c39.7 39.7 86.4 16.8 117.3 1.1l4.9-2.2c4.9-2.2 10.3-4.9 15.2-7.6 31-15.2 70.1-33.7 103.8-63 11.4-9.8 13-27.7 2.7-39.1-9.8-11.4-27.7-13-39.1-2.7-28.2 24.4-63.6 41.3-91.8 54.9-5.4 2.7-10.9 5.4-16.3 7.6l-4.9 2.7c-34.8 17.4-44 19-53.8 9.2L138 510.7c-20.6-20.6-19-32.6-17.9-44.5 0-1.1 0-1.6 0.5-2.7 2.7-7.1 17.9-25 26.1-34.8 3.8-4.9 8.1-9.8 11.4-14.1 14.7-18.5 24.4-34.8 34.2-51.1 15.2-25.5 29.3-49.4 61.4-81.5l221.1-221.1c9.2-9.2 21.2-15.2 32.6-16.8 8.1-1.1 15.2 0.5 19 3.8 10.9 10.9 66.3 59.8 143.4 127.7 43.5 38 92.3 80.9 97.2 86.4 0.5 0.5 28.8 36.9 2.7 63L565.5 529.1c-10.9 10.9-10.9 28.2 0 39.1 10.9 10.9 28.2 10.9 39.1 0L808.9 364c22.8-22.8 31.5-53.2 25-85.3-4.9-23.9-17.4-45.6-27.7-56-6-6-40.2-35.9-100-88.5-58.1-51.1-130.4-114.6-140.7-124.9-13-13.6-32-21.2-53.2-21.2z m0 0M742.6 197.79999999999995c-7.1 0-14.1 2.7-19.6 8.1l-99.4 99.4c-10.9 10.9-10.9 28.2 0 39.1 10.9 10.9 28.2 10.9 39.1 0l99.4-99.4c5.2-5.2 8.1-12.2 8.1-19.6 0-7.3-2.9-14.4-8.1-19.6-4.8-5.3-11.9-8-19.5-8z m-69.5-70.1c-7.1 0-14.1 2.7-19.6 8.1l-99.4 99.4c-10.9 10.9-10.9 28.2 0 39.1 10.9 10.9 28.2 10.9 39.1 0l99.4-99.4c5.2-5.2 8.1-12.2 8.1-19.6 0-7.3-2.9-14.4-8.1-19.6-5.4-5.3-12.5-8-19.5-8z m-75.5-75.5c-7.1 0-14.1 2.7-19.6 8.1l-99.4 99.4c-10.9 10.9-10.9 28.2 0 39.1 10.9 10.9 28.2 10.9 39.1 0l99.4-99.4c5.2-5.2 8.1-12.2 8.1-19.6 0-7.3-2.9-14.4-8.1-19.6-5.4-5.3-12.5-8-19.5-8z m0 0"  horiz-adv-x="1157" />
      
      <glyph glyph-name="a-9-yibingjianguan" unicode="&#59019;" d="M527.5 15.700000000000045H266c-28.9 0-50.5 32.4-50.5 58.8V653.6c0 43 8.6 64.2 50.5 64.2 17.3 0 32.6 22.7 32.6 40s-15.3 35-32.6 36.4c-104.4 8.1-138.7-63.1-138.7-140.6v-579.1c0-77.5 62.2-140.6 138.7-140.6h261.6c17.3 0 34.4 25.8 34.4 43.1-0.1 17.3-17.2 38.7-34.5 38.7zM760 794.2c-17.3 0-31.3-11.2-31.3-31.3s7.6-40.9 24.9-40.9c41.9 0 64.8-25.4 64.8-68.4v-286.4c0-17.3 22.7-31.6 40-31.6s40.3 14.3 40.3 31.6V653.6c0.1 77.5-62.2 140.6-138.7 140.6zM390.7 563.7c-17.3 0-37.6-14-37.6-31.3v-30.6c0-17.3 20.3-31.3 37.6-31.3s36.2 14 36.2 31.3v30.6c0.1 17.3-18.8 31.3-36.2 31.3z m244.5 0c-17.3 0-36.9-14-36.9-31.3v-30.6c0-17.3 19.6-31.3 36.9-31.3 17.3 0 39.4 14 39.4 31.3v30.6c0.1 17.3-22 31.3-39.4 31.3z m-37.2-134c-14.3 9.4-36.9 10.3-46.5-3.9-0.1-0.2-18.9-20.8-39.5-20.8-20 0-33.6 19.5-34.4 20.8-9.2 14.5-31.8 15.5-46.4 6.5-14.7-9.1-18.9-30.9-9.8-45.6 11.2-18.1 46.3-49.5 90.6-49.5 44.1 0 83 31.5 94.5 49.5 9.2 14.4 5.9 33.5-8.5 43z m-179 235h188c46.1 0 83.5 37.5 83.5 83.5 0 46.1-37.5 83.5-83.5 83.5H419c-46.1 0-83.5-37.5-83.5-83.5s37.5-83.5 83.5-83.5z m0 104.4h188c11.3 0 20.9-9.6 20.9-20.9 0-11.3-9.6-20.9-20.9-20.9H419c-11.3 0-20.9 9.6-20.9 20.9 0 11.4 9.6 20.9 20.9 20.9z m414.5-475.9C788 319.79999999999995 730.1 313.79999999999995 688 279.4c-42.1 34.4-99.9 40.4-145.5 13.8-35.2-20.6-58.4-55.4-63.7-95.5-5.3-40.4 7.8-80.1 36.2-108.8l138.9-140.8c9.1-9.2 21.2-14.3 34.1-14.3 12.9 0 25 5.1 34.2 14.3l138.9 140.8c28.3 28.7 41.5 68.4 36.1 108.8-5.3 40.1-28.5 74.9-63.7 95.5z m-23-155.8L688.1 19.100000000000023 570.6 137.39999999999998c-14.6 14.8-27.2 31.9-24.7 52.1 2.5 20.2 13 32.7 24.7 42 7.3 5.8 21.4 12.4 31.8 12.4 18 0 38.1-4.4 52-18.5l11.3-11.5c5.9-6 13.9-15.5 22.3-15.5s16.4 9.5 22.3 15.5l11.3 11.5c22 22.3 59.4 20 78.7 6.1 12.8-9.2 26.8-23.6 28.7-42 2-18.5-4.9-39.3-18.5-52.1z m0 0"  horiz-adv-x="1024" />
      
      <glyph glyph-name="a-2-AIxunjian" unicode="&#59020;" d="M818.8 18h101.7c22.5 0 40.7-18.2 40.7-40.7 0-22.5-18.2-40.7-40.7-40.7H106.8c-22.5 0-40.7 18.2-40.7 40.7 0 22.5 18.2 40.7 40.7 40.7h101.7V404.5c0 168.5 136.6 305.2 305.2 305.2 168.5 0 305.2-136.6 305.2-305.2V18z m-81.4 0V404.5c0 123.6-100.2 223.8-223.8 223.8-123.6 0-223.8-100.2-223.8-223.8V18h447.6zM394.1 262.70000000000005l81.4 217.2 76.2-28.6-40.6-108.4 122.2-1.2-81.6-216.1-76.1 28.7L516 261.5l-121.9 1.2z m38.2 569.1H595v-81.4H432.3V831.8z m340.3-73.6l115.1-115.1-57.6-57.6-115 115.2 57.5 57.5z m188.6-292.6v-162.8h-81.4V465.6h81.4zM66.1 302.79999999999995V465.6h81.4v-162.8H66.1z m73.5 340.3l115.1 115.1 57.6-57.6-115.1-115-57.6 57.5z m0 0"  horiz-adv-x="1024" />
      
      <glyph glyph-name="a-12-huanbaoguanli" unicode="&#59021;" d="M513 831.8c-247.4 0-449-201.6-449-449s201.6-449 449-449c247.8 0 449 201.6 449 449s-201.6 449-449 449z m0-860.8c-226.8 0-411.7 184.5-411.7 411.7 0 226.8 185 411.7 411.7 411.7 227.2 0 411.7-184.5 411.7-411.7S740.2-29 513-29zM649.9 484.2l64.7 112.3-41.3-24.3s-16.2 28.3-22.9 39.5c-9 15.7-26 25.6-44.5 25.6s-35-9.9-44-26c0 0-14.8-25.6-29.6-51.6l30.1-52.1-41.8-23.4h129.3zM740.2 291.20000000000005H613.6v48L548.9 227l64.7-112.2v48h64.7c15.7 0 30.5 8.1 39.1 22.5L797.2 324c-11.7-20.2-33.7-32.8-57-32.8zM400.3 356.29999999999995l41.8-24.3-64.7 112.3H248.1l41.8-23.8-32.3-56.1c-8.1-13.5-8.5-30.5-0.5-44.9l79.5-138.7c-11.7 20.2-11.7 45.4 0.4 65.6l63.3 109.9zM682.7 304.6h59.7c18.4 0 35.5 9.9 44.5 25.6 9 15.7 9 35.5 0 51.2 0 0-31.9 55.7-57.5 99.7L618 416.9l64.7-112.3zM347.8 238.20000000000005c-9.4-15.7-9.4-35.5-0.4-51.2 9-15.7 26-25.6 44.5-25.6h115.4V289.79999999999995H377.4c-14.8-26-29.6-51.6-29.6-51.6zM606.4 650.8H446.1c-16.6 0-30.5-9.4-39.1-22.9-13.5-22.9-66.9-116.7-66.9-116.7L451.5 447s84 145 99.2 171.5c11.7 20.2 32.3 32.3 55.7 32.3z"  horiz-adv-x="1024" />
      
      <glyph glyph-name="a-4-zhinengnenghao" unicode="&#59009;" d="M497.1 827.9c8.1 4.7 17.9 5.6 26.8 2.4l5.1-2.4 358.7-207.1c8.1-4.7 13.7-12.7 15.4-22l0.5-5.6v-414.1c0-9.4-4.2-18.3-11.3-24.3l-4.6-3.2-358.8-207.2c-8.1-4.7-17.9-5.6-26.8-2.4l-5.1 2.4-358.6 207.1c-8.1 4.7-13.7 12.7-15.4 22l-0.5 5.6V593.2c0 9.4 4.2 18.3 11.3 24.3l4.6 3.2L497.1 827.9z m15.9-64.4L186.2 574.8v-377.2L513 8.899999999999977l326.8 188.7V574.8L513 763.5z m65.7-228.1c10.6-11.2 11.6-28.4 2.4-40.8l-3.8-4.3L466 386.2h174.4c12.1 0 23.1-6.8 28.5-17.6 5.4-10.8 4.2-23.7-3-33.4l-3.7-4.1-169.9-159.3c-12-11.3-30.6-11.5-43-0.6-12.3 11-14.2 29.5-4.4 42.7l3.8 4.3 111.1 104.2H385.6c-12.1 0-23.1 6.8-28.5 17.6-5.4 10.8-4.2 23.7 3 33.4l3.7 4.1 169.9 159.3c12.8 12 33 11.4 45-1.4z m0 0"  horiz-adv-x="1024" />
      
      <glyph glyph-name="a-7-yuanchengmaizhu" unicode="&#59011;" d="M513-63.39999999999998c-246.8 0-447.6 200.8-447.6 447.6S266.2 831.8 513 831.8 960.6 631 960.6 384.2 759.8-63.39999999999998 513-63.39999999999998z m0 820.9c-205.9 0-373.3-167.5-373.3-373.3 0-205.9 167.5-373.3 373.3-373.3 205.9 0 373.3 167.5 373.3 373.3 0 205.9-167.4 373.3-373.3 373.3z m0 0M485.2 120c-17.6 0-31.8 14.3-31.8 31.8v25.9h-0.2c-8.3 1.6-16.9 3.2-25.3 5.5-5.2 1.4-12.7 4.7-23.1 9.8-12.5 6.3-20.3 18.8-20.3 32.9 0 9.8 3.8 19.2 10.7 26.1 6.8 6.9 16.4 10.9 26.1 10.9 5.1 0 10-1 14.7-3.1 20.3-8.8 36.5-14.2 46.8-15.6 5.9-0.8 11.8-1.2 17.7-1.2 11.7 0 23.5 1.6 35 4.8 19.8 5.4 26 19.3 27.9 27.1 3.5 13.9-0.6 29.3-10.1 38.2-7.5 7.1-16.4 13.7-25.6 19-8.7 5-18 9.7-26.9 14.2-9 4.6-18.4 9.2-27.4 14.5-13.9 7.9-32 18.7-48.7 31-26.3 19.5-41.7 53-40.1 87.6 1.6 35.2 19.8 65.9 49.8 84.1 6.8 4.1 13 7.4 19 10.2-0.1 10.5-0.1 34.4-0.1 43 0 17.5 14.3 31.8 31.8 31.8h24.8c17.6 0 31.8-14.3 31.8-31.8v-27.8c6.7-0.3 13.3-0.6 19.9-1.1 9-0.7 23.1-4.7 41.8-11.9 13.5-5.2 22.4-18.4 22.4-32.8 0-19.3-15.7-34.9-34.9-34.9-3 0-5.9 0.4-8.7 1.1-25.9 6.7-46.9 10.2-60.4 10.2h-2.7c-12.9-0.5-24.5-3.4-35.7-8.6-17.1-8.1-20.6-22-21.3-29.7-1.1-13.4 5-27.2 15.2-34.1 19.7-13.5 40.8-24.5 59-33.6 21-10.4 43.3-22.3 62.8-38.4 23.5-19.4 36.8-41 40.9-65.9 9.1-56.6-15.7-100.9-68.1-121.3-8.9-3.5-18.2-6-27.1-8.3-1-0.3-2-0.5-2.9-0.8V152c0-17.6-14.3-31.8-31.8-31.8h-24.6v-0.2z m0 0"  horiz-adv-x="1024" />
      
      <glyph glyph-name="a-1-shengchanguanli" unicode="&#59012;" d="M576.4 232.10000000000002v-65.9H308.2v65.9h268.2z m119.8 207.5v-65.9h-388v65.9h388zM707.8 640v-65.9H308.2V640h399.6z m0 0M796.5 832.1H223.3c-64.7-0.1-117.1-52.6-117.3-117.3v-661.2c0.2-64.7 52.6-117.2 117.3-117.3h573.2c64.7 0.2 117.2 52.6 117.3 117.3V714.8c-0.1 64.7-52.5 117.2-117.3 117.3z m57.6-751c0-43.6-40.2-83.8-83.8-83.8H249.6c-43.6 0-83.8 40.2-83.8 83.8V687.3c0 43.6 40.2 83.8 83.8 83.8h520.7c43.6 0 83.8-40.2 83.8-83.8v-606.2z m0 0"  horiz-adv-x="1024" />
      
      <glyph glyph-name="a-10-yuanchengfengkong" unicode="&#59014;" d="M418.3-54.60000000000002c-69.1 0-113.5 44.8-121.9 123l61.1 6.5c7.3-68.1 46.1-68.1 60.8-68.1 43.1 0 60.6 16.1 60.6 55.5V434.9h61.5v-372.5c0-73.3-45.6-117-122.1-117z m128 771.5h-61.5V820.1h61.5v-103.2z m0 0M512.7 756.2c-247 0-448-200.4-448-446.7h61.6c0 57 48.6 103.3 108.3 103.3s108.3-46.4 108.3-103.3h61.6c0 57 48.6 103.3 108.3 103.3 59.7 0 108.3-46.4 108.3-103.3h61.6c0 57 48.6 103.3 108.3 103.3 59.7 0 108.3-46.4 108.3-103.3h61.6c-0.1 246.3-201.1 446.7-448.2 446.7z m278.2-282c-55 0.2-106.7-25.9-139.1-70.3-32.5 44.2-84.2 70.3-139.1 70.3-54.9 0-106.5-26.1-139.1-70.3-50.5 68.4-143.1 90-218.7 51.1 59.7 145 201 239.8 357.8 239.8S810.9 600 870.4 454.9c-24.6 12.7-51.8 19.3-79.5 19.3z m0 0"  horiz-adv-x="1048" />
      
      <glyph glyph-name="a-8-xixiaojianguan" unicode="&#59015;" d="M508.5 828.3l377-178.1v-305.7c0-163.7-134.3-335.5-348.1-396.3l-8.9-2.5-20-5.2-20.2 5.2c-212 56.7-348.6 223.3-356.5 385.9l-0.3 7-0.1 311.5L508.5 828.3z m-0.1-71.5L196.1 609.2l0.1-269.8c3.3-130.9 113.9-272 291.2-326.3l8.6-2.6 8.7-2.4 3.7-1 3.6 0.9c184.9 49.5 301.5 191 308.5 323.7l0.3 6.3 0.1 6.3V609.2L508.4 756.8z m-35.2-195.4c51.6 0 99-28.3 123.5-73.6 24.5-45.4 22.1-100.5-6.2-143.6l84.1-84.1-45.7-45.7-85.3 85.3c-51.1-29.6-115.1-24-160.4 13.9-45.2 37.9-61.9 100-41.8 155.4 20.1 55.5 72.8 92.4 131.8 92.4z m0-64.6c-27 0-52-14.4-65.5-37.8s-13.5-52.3 0-75.7c13.5-23.4 38.5-37.8 65.5-37.8 41.8 0 75.7 33.9 75.7 75.7 0 41.7-33.9 75.6-75.7 75.6z m0 0"  horiz-adv-x="1024" />
      
      <glyph glyph-name="a-6-quanjinghuankong" unicode="&#59016;" d="M511.3 831.8c247.2 0 447.6-200.4 447.6-447.6 0.2-96.5-31-190.5-88.9-267.8-81.8-109.1-212.1-179.8-358.7-179.8h-0.1c-145.9 0-275.7 70.2-357.5 178.4-58.5 77.5-90.1 172-89.9 269.1 0 247.3 200.3 447.7 447.5 447.7z m0-828c210 0 380.8 170.8 380.8 380.7 0 209.9-170.8 380.7-380.8 380.7S130.5 594.4 130.5 384.5c0-209.9 170.8-380.7 380.8-380.7zM260.4 541.3c11.6 0 22.4-6 28.5-15.9 6.1-9.8 6.7-22.2 1.6-32.6-16.6-33.7-25.2-70.8-25.1-108.4 0-135.6 110.3-245.9 245.9-245.9 135.6 0 245.9 110.3 245.9 245.9 0.1 37.6-8.5 74.7-25.1 108.4-8.1 16.6-1.2 36.7 15.4 44.8 16.6 8.2 36.7 1.4 44.9-15.2 21.2-42.9 32.1-90.1 32-138 0-172.6-140.5-313.1-313.1-313.1-172.7 0-313.1 140.4-313.1 313.1-0.1 47.9 10.8 95.1 32 138 5.7 11.7 17.4 18.9 30.2 18.9z m250.9-257.5c-49.1 0-91.1 35.4-99.4 83.7-8.3 48.4 19.5 95.7 65.8 112.1V664.5c0 18.6 15 33.6 33.6 33.6s33.6-15 33.6-33.6v-184.9c46.3-16.4 74.1-63.7 65.8-112.1-8.3-48.4-50.3-83.7-99.4-83.7z m0 134.3c-18.6 0-33.6-15-33.6-33.6s15-33.6 33.6-33.6 33.6 15 33.6 33.6-15 33.6-33.6 33.6z m0 0"  horiz-adv-x="1024" />
      
      <glyph glyph-name="a-yinru1" unicode="&#59008;" d="M960-64H640v128h192v640H640V832h320v-896z m-463.067429 131.803429l-85.942857 73.581714 149.723429 178.614857H64v128h496.64L411.062857 626.541714l85.942857 73.581715L768 384l-271.067429-316.196571z"  horiz-adv-x="1024" />
      
      <glyph glyph-name="shezhi1" unicode="&#59007;" d="M202.667 704c-78.934 0-140.8-64-140.8-140.8 0-78.933 64-140.8 140.8-140.8 78.933 0 140.8 64 140.8 140.8 0 78.933-64 140.8-140.8 140.8z m87.466-140.8c0-49.067-40.533-89.6-89.6-89.6-49.066 0-89.6 40.533-89.6 89.6 0 49.067 40.534 89.6 89.6 89.6 51.2 0 89.6-40.533 89.6-89.6z m-87.466-217.6c-78.934 0-140.8-64-140.8-140.8 0-78.933 64-140.8 140.8-140.8 78.933 0 140.8 64 140.8 140.8 0 76.8-64 140.8-140.8 140.8z m87.466-140.8c0-49.067-40.533-89.6-89.6-89.6-49.066 0-89.6 40.533-89.6 89.6 0 49.067 40.534 89.6 89.6 89.6 51.2-2.133 89.6-40.533 89.6-89.6z m142.934 514.133h531.2V665.6h-531.2zM433.067 514.133H800V460.8H433.067zM174.933 456.533h53.334V313.6h-53.334z m0-360.533h53.334v-142.933h-53.334z m0 718.933h53.334V672h-53.334zM433.067 100.267H800v-53.334H433.067zM433.067 307.2h531.2v-53.333h-531.2z"  horiz-adv-x="1024" />
      
      <glyph glyph-name="shezhi2" unicode="&#59010;" d="M694.044444 583.1111109999999c-5.688889 22.755556-17.066667 34.133333-34.133333 34.133333-45.511111 0-79.644444 34.133333-79.644444 79.644445 0 17.066667 5.688889 28.444444 5.688889 34.133333 5.688889 17.066667 0 39.822222-11.377778 51.2l-79.644445 51.2c-17.066667 11.377778-39.822222 5.688889-51.2-11.377778-11.377778-5.688889-39.822222-34.133333-62.577777-34.133333-22.755556 0-51.2 28.444444-62.577778 39.822222-11.377778 11.377778-34.133333 17.066667-51.2 5.688889l-85.333334-45.511111c-17.066667-11.377778-22.755556-34.133333-11.377777-56.888889 0 0 5.688889-17.066667 5.688889-34.133333 0-45.511111-34.133333-79.644444-79.644445-79.644445-17.066667 0-28.444444-11.377778-34.133333-34.133333 0 0-5.688889-39.822222-5.688889-68.266667s5.688889-62.577778 5.688889-68.266666c5.688889-22.755556 17.066667-34.133333 34.133333-34.133334 45.511111 0 79.644444-34.133333 79.644445-79.644444 0-17.066667-5.688889-28.444444-5.688889-34.133333-5.688889-17.066667 0-39.822222 11.377777-51.2l79.644445-45.511111c17.066667-5.688889 39.822222 0 51.2 11.377777 11.377778 11.377778 39.822222 39.822222 62.577778 39.822223 22.755556 0 56.888889-28.444444 62.577777-39.822223 5.688889-11.377778 22.755556-17.066667 34.133334-17.066666 5.688889 0 11.377778 0 17.066666 5.688889l79.644445 45.511111c17.066667 11.377778 22.755556 34.133333 11.377778 51.2 0 0-5.688889 17.066667-5.688889 34.133333 0 45.511111 34.133333 79.644444 79.644444 79.644444h5.688889c17.066667 0 28.444444 11.377778 34.133333 34.133334 0 0 5.688889 39.822222 5.688889 68.266666 0 34.133333-5.688889 68.266667-5.688889 68.266667zM625.777778 514.8444440000001c0-17.066667-5.688889-39.822222-5.688889-45.511111-56.888889-5.688889-102.4-56.888889-102.4-119.466666 0-17.066667 5.688889-34.133333 5.688889-39.822223l-62.577778-34.133333-22.755556 22.755556c-22.755556 17.066667-39.822222 28.444444-62.577777 28.444444-17.066667 0-39.822222-5.688889-62.577778-22.755555-11.377778-11.377778-22.755556-17.066667-22.755556-22.755556L227.555556 315.733333c5.688889 5.688889 5.688889 22.755556 5.688888 39.822223 0 62.577778-45.511111 113.777778-102.4 119.466666 0 11.377778-5.688889 28.444444-5.688888 45.511111 0 17.066667 5.688889 39.822222 5.688888 45.511111 56.888889 5.688889 102.4 56.888889 102.4 119.466667 0 17.066667-5.688889 34.133333-5.688888 39.822222l62.577777 39.822223c0-5.688889 11.377778-11.377778 22.755556-22.755556 28.444444-17.066667 45.511111-28.444444 68.266667-28.444444 17.066667 0 39.822222 5.688889 56.888888 22.755555 11.377778 11.377778 22.755556 17.066667 22.755556 22.755556l62.577778-34.133334c0-5.688889-5.688889-22.755556-5.688889-39.822222 0-62.577778 45.511111-113.777778 102.4-119.466667 0-11.377778 5.688889-34.133333 5.688889-51.2zM375.466667 622.933333c-56.888889 0-108.088889-45.511111-108.088889-108.088889 0-56.888889 45.511111-108.088889 108.088889-108.088888 56.888889 0 108.088889 45.511111 108.088889 108.088888 0 62.577778-45.511111 108.088889-108.088889 108.088889z m51.2-102.4c0-22.755556-22.755556-45.511111-45.511111-45.511111s-45.511111 22.755556-45.511112 45.511111 22.755556 45.511111 45.511112 45.511111 45.511111-22.755556 45.511111-45.511111zM870.4 253.15555600000005H682.666667c-22.755556 0-39.822222 17.066667-39.822223 39.822222 0 22.755556 17.066667 39.822222 39.822223 39.822222h193.422222c22.755556 0 39.822222-17.066667 39.822222-39.822222-5.688889-22.755556-22.755556-39.822222-45.511111-39.822222zM870.4 99.55555600000002h-295.822222c-22.755556 0-39.822222 17.066667-39.822222 39.822222 0 22.755556 17.066667 39.822222 39.822222 39.822222h295.822222c22.755556 0 39.822222-17.066667 39.822222-39.822222 0-22.755556-17.066667-39.822222-39.822222-39.822222zM870.4-54.044444H307.2c-22.755556 0-39.822222 17.066667-39.822222 39.822222 0 22.755556 17.066667 39.822222 39.822222 39.822222h563.2c22.755556 0 39.822222-17.066667 39.822222-39.822222 0-22.755556-17.066667-39.822222-39.822222-39.822222z"  horiz-adv-x="1024" />
      
      <glyph glyph-name="shezhi" unicode="&#59006;" d="M881.777778 668.444444h-113.777778a28.444444 28.444444 0 0 0 0 56.888889h113.777778a28.444444 28.444444 0 0 0 0-56.888889z m-284.444445 0h-512a28.444444 28.444444 0 1 0 0 56.888889h512a28.444444 28.444444 0 0 0 0-56.888889zM682.666667 598.186667c-22.528 0-44.487111 7.054222-63.203556 20.309333a119.296 119.296 0 0 0-41.927111 54.044444 127.146667 127.146667 0 0 0-6.485333 69.575112 122.88 122.88 0 0 0 31.175111 61.724444c15.928889 16.839111 36.181333 28.330667 58.254222 32.995556 22.072889 4.608 44.942222 2.275556 65.706667-6.883556 20.821333-9.102222 38.570667-24.576 51.086222-44.373333a126.634667 126.634667 0 0 0 10.524444-113.038223c-5.688889-14.620444-14.108444-27.875556-24.689777-39.082666a113.607111 113.607111 0 0 0-36.920889-26.168889 108.316444 108.316444 0 0 0-43.52-9.102222z m0 180.679111a54.670222 54.670222 0 0 1-31.630223-10.126222 59.676444 59.676444 0 0 1-20.935111-27.022223 63.544889 63.544889 0 0 1-3.242666-34.816c2.218667-11.719111 7.623111-22.414222 15.587555-30.833777 7.964444-8.419556 18.090667-14.222222 29.127111-16.497778 11.036444-2.332444 22.471111-1.137778 32.881778 3.413333 10.353778 4.551111 19.285333 12.288 25.543111 22.186667a62.748444 62.748444 0 0 1-7.111111 76.060444 55.352889 55.352889 0 0 1-40.220444 17.635556zM881.777778 327.111111h-512a27.648 27.648 0 0 0-20.138667 8.817778A31.061333 31.061333 0 0 0 341.333333 357.262222c0 7.964444 3.015111 15.644444 8.305778 21.333334 5.347556 5.632 12.572444 8.817778 20.138667 8.817777h512c7.566222 0 14.791111-3.185778 20.138666-8.817777 5.290667-5.688889 8.305778-13.312 8.305778-21.333334 0-7.964444-3.015111-15.644444-8.305778-21.276444A27.704889 27.704889 0 0 0 881.777778 327.111111z m-682.666667 0h-113.777778a27.648 27.648 0 0 0-20.138666 8.817778A31.061333 31.061333 0 0 0 56.888889 357.262222c0 7.964444 3.015111 15.644444 8.305778 21.333334 5.347556 5.632 12.572444 8.817778 20.138666 8.817777h113.777778c7.566222 0 14.791111-3.185778 20.138667-8.817777 5.290667-5.688889 8.305778-13.312 8.305778-21.333334 0-7.964444-3.015111-15.644444-8.305778-21.276444A27.648 27.648 0 0 0 199.111111 327.111111zM284.444444 256.853333c-22.528 0-44.487111 7.054222-63.203555 20.309334a119.239111 119.239111 0 0 0-41.927111 54.044444 127.089778 127.089778 0 0 0-6.485334 69.575111c4.437333 23.381333 15.246222 44.885333 31.175112 61.724445 15.928889 16.839111 36.181333 28.330667 58.254222 32.995555 22.072889 4.608 44.942222 2.275556 65.706666-6.883555 20.821333-9.102222 38.570667-24.576 51.086223-44.373334 12.515556-19.797333 19.171556-43.121778 19.171555-66.958222 0-31.914667-11.946667-62.577778-33.336889-85.162667-21.333333-22.584889-50.289778-35.271111-80.440889-35.271111zM284.444444 437.475556a54.613333 54.613333 0 0 1-31.630222-10.126223 59.619556 59.619556 0 0 1-20.935111-27.022222 63.544889 63.544889 0 0 1-3.242667-34.816c2.218667-11.719111 7.623111-22.414222 15.587556-30.833778 7.964444-8.419556 18.090667-14.222222 29.127111-16.497777 11.036444-2.332444 22.471111-1.137778 32.881778 3.413333 10.353778 4.551111 19.285333 12.288 25.486222 22.186667a62.805333 62.805333 0 0 1-7.054222 76.060444 55.352889 55.352889 0 0 1-40.220445 17.635556zM881.777778-14.222222h-113.777778a27.648 27.648 0 0 0-20.138667 8.817778 31.061333 31.061333 0 0 0-8.305777 21.276444c0 7.964444 3.015111 15.701333 8.305777 21.333333a27.704889 27.704889 0 0 0 20.138667 8.817778h113.777778c7.566222 0 14.791111-3.185778 20.138666-8.817778 5.290667-5.688889 8.305778-13.312 8.305778-21.333333 0-7.964444-3.015111-15.644444-8.305778-21.276444A27.648 27.648 0 0 0 881.777778-14.222222z m-284.444445 0h-512a27.648 27.648 0 0 0-20.138666 8.817778A31.004444 31.004444 0 0 0 56.888889 15.928889c0 7.964444 3.015111 15.701333 8.305778 21.333333 5.347556 5.632 12.572444 8.817778 20.138666 8.817778h512c7.566222 0 14.791111-3.185778 20.138667-8.817778 5.290667-5.688889 8.305778-13.312 8.305778-21.333333 0-7.964444-3.015111-15.644444-8.305778-21.276445A27.648 27.648 0 0 0 597.333333-14.222222zM682.666667-71.111111a113.777778 113.777778 0 1 0 0 227.555555 113.777778 113.777778 0 0 0 0-227.555555z m0 170.666667a56.888889 56.888889 0 1 1 0-113.891556A56.888889 56.888889 0 0 1 682.666667 99.555556z"  horiz-adv-x="1024" />
      
      <glyph glyph-name="pigequipment" unicode="&#59005;" d="M775.9 454.5c-13 0-23.5 10.5-23.5 23.5 0 141.9-107.8 257.4-240.4 257.4-132.5 0-240.4-115.5-240.4-257.4 0-13-10.5-23.5-23.5-23.5S224.6 465 224.6 478c0 81 29.7 157.3 83.7 214.7 54.3 57.8 126.7 89.7 203.7 89.7s149.4-31.9 203.7-89.7c54-57.4 83.7-133.7 83.7-214.7 0-13-10.5-23.5-23.5-23.5zM680.2 454.5c-13 0-23.5 10.5-23.5 23.5 0 85.5-64.7 155.1-144.3 155.1-79.6 0-144.3-69.6-144.3-155.1 0-13-10.5-23.5-23.5-23.5S321.1 465 321.1 478c0 111.5 85.8 202.2 191.4 202.2S703.7 589.5 703.7 478c0-13-10.5-23.5-23.5-23.5zM854.2-14.4H169.8c-39.8 0-72.3 32.4-72.3 72.3V283.3c0 39.8 32.4 72.3 72.3 72.3h684.5c39.8 0 72.3-32.4 72.3-72.3v-225.5c-0.1-39.8-32.5-72.2-72.4-72.2zM169.8 308.5c-13.9 0-25.2-11.3-25.2-25.2v-225.5c0-13.9 11.3-25.2 25.2-25.2h684.5c13.9 0 25.2 11.3 25.2 25.2V283.3c0 13.9-11.3 25.2-25.2 25.2H169.8zM263.1 162.7m-41.3 0a41.3 41.3 0 1 1 82.6 0 41.3 41.3 0 1 1-82.6 0ZM396.6 162.7m-41.3 0a41.3 41.3 0 1 1 82.6 0 41.3 41.3 0 1 1-82.6 0ZM512.4 308.5c-13 0-23.5 10.5-23.5 23.5V482.8c0 13 10.5 23.5 23.5 23.5s23.5-10.5 23.5-23.5V332c0-13-10.5-23.5-23.5-23.5z"  horiz-adv-x="1024" />
      
      <glyph glyph-name="setup" unicode="&#59004;" d="M554.496 339.456V711.68c0 1.536-0.512 3.072-2.048 4.608-4.096 5.632-12.288 5.632-17.408 1.536L122.368 358.4c-5.632-4.608-5.12-13.824 1.536-17.92 1.536-0.512 2.048-1.536 3.584-1.536h132.608v-314.368c0-6.656 5.632-12.288 12.288-12.288h197.12v231.936c0 6.656 5.632 12.288 12.288 12.288H624.64c6.656 0 12.288-5.632 12.288-12.288v-231.936h200.704c6.656 0 12.288 5.632 12.288 12.288v314.368h-295.424zM823.296 505.856l20.992 13.312c3.584 2.048 5.12 6.144 4.096 10.24l-10.24 45.568c-1.024 4.096-4.096 6.656-8.192 7.168l-25.088 2.56c-2.56 0.512-4.608 1.536-6.144 3.584l-4.096 5.12c-1.536 2.048-2.048 4.608-2.048 6.656l3.072 25.088c0.512 4.096-1.536 7.68-5.12 9.728l-41.984 20.48c-3.584 1.536-7.68 1.024-10.752-2.048l-17.92-17.92c-1.536-1.536-4.096-2.56-6.656-2.56H706.56c-2.56 0-4.608 1.024-6.656 2.56l-17.92 17.92c-2.56 2.56-7.168 3.584-10.752 2.048l-41.984-20.48c-3.584-1.536-5.632-5.632-5.12-9.728l3.072-25.088c0.512-2.56-0.512-5.12-2.048-6.656l-4.096-5.12c-1.536-2.048-3.584-3.072-6.144-3.584l-25.088-2.56c-4.096-0.512-7.168-3.584-8.192-7.168l-10.24-45.568c-1.024-4.096 1.024-7.68 4.096-10.24l20.992-13.312c2.048-1.536 3.584-3.584 4.096-5.632l1.536-6.656c0.512-2.56 0-5.12-1.024-7.168l-13.312-20.992c-2.048-3.584-2.048-7.68 0.512-10.752l29.184-36.352c2.56-3.072 6.656-4.096 10.24-3.072l23.552 8.192c2.56 1.024 5.12 0.512 7.168-0.512l6.144-3.072c2.048-1.024 4.096-3.072 4.608-5.12l8.192-23.552c1.536-3.584 4.608-6.144 8.704-6.144h46.592c4.096 0 7.68 2.56 8.704 6.144l8.192 23.552c1.024 2.56 2.56 4.096 4.608 5.12l6.144 3.072c2.048 1.024 4.608 1.024 7.168 0.512l23.552-8.192c3.584-1.536 7.68 0 10.24 3.072l29.184 36.352c2.56 3.072 2.56 7.68 0.512 10.752L819.2 486.4c-1.536 2.048-1.536 4.608-1.024 7.168l1.536 6.656c0 2.048 1.536 4.096 3.584 5.632z m-105.472-29.184c-14.336-2.56-29.184 2.048-39.424 12.8-10.24 10.24-14.848 25.088-12.8 39.424 3.072 18.432 17.92 33.792 36.864 36.864 14.336 2.56 29.184-2.048 39.424-12.8 10.24-10.24 14.848-25.088 12.288-39.424-2.56-18.944-17.92-33.792-36.352-36.864z m0 0"  horiz-adv-x="1024" />
      
      <glyph glyph-name="wuzipandian" unicode="&#58998;" d="M566.360494 635.214109h445.35873l-121.724162 181.683245c-13.364374 19.504762-35.397531 31.785538-59.597884 31.785538h-264.036684v-213.468783z m-106.553792 214.191182H195.408818c-24.200353 0-46.23351-11.919577-59.597883-31.785538L14.086772 635.214109h445.358731V849.405291h0.361199z m130.754145-515.070194c-27.089947-27.089947-41.899118-62.848677-41.899119-100.774603s14.447972-74.045855 41.899119-100.774603c53.818695-53.818695 147.730511-53.818695 201.549206 0 27.089947 26.728748 41.899118 62.848677 41.899118 100.774603s-14.447972 74.045855-41.899118 100.774603c-27.812346 27.812346-63.932275 41.899118-100.774603 41.899118s-72.962257-14.809171-100.774603-41.899118z m0 0M14.809171 564.419048v-569.972487c0-39.370723 31.785538-71.51746 71.51746-71.51746h848.095944l-111.971781 111.971781c-94.273016-62.126279-219.247972-49.484303-299.073016 30.340741-44.788713 44.788713-69.711464 104.386596-69.711464 167.957672 0 63.209877 24.561552 122.80776 69.711464 167.957671 92.828219 92.467019 242.725926 92.467019 335.554144 0 79.825044-79.825044 92.467019-204.8 30.340741-299.073015l119.556967-119.556967c0.722399 3.973192 2.528395 7.585185 2.528395 11.558378v570.694885H14.809171z m283.541446-225.749559H108.359788V433.664903h189.990829v-94.995414z m0 0M552.99612 234.282892c0-78.741446 63.932275-142.312522 142.312522-142.312522 78.741446 0 142.312522 63.932275 142.312522 142.312522 0 78.741446-63.932275 142.312522-142.312522 142.312522-78.380247 0.361199-142.312522-63.571076-142.312522-142.312522z m0 0"  horiz-adv-x="1024" />
      
      <glyph glyph-name="wuzicaigou" unicode="&#58999;" d="M511.097002-87.906878v491.23104c0 13.003175 7.585185 24.561552 19.504762 29.257143l439.579541 173.736861c9.391182 3.611993 20.22716 2.167196 28.534744-3.611993 8.307584-5.779189 13.364374-15.53157 13.003175-25.64515v-451.499118c0-12.280776-6.862787-23.116755-17.698765-28.534745l-439.218343-213.468783c-9.752381-4.695591-20.949559-3.611993-29.979541 2.167196-8.307584 5.417989-13.725573 15.53157-13.725573 26.367549zM76.93545 708.176367L497.732628 880.46843c7.223986 3.250794 15.53157 3.250794 23.116755 0l417.185185-169.402469c11.919577-4.695591 19.865961-16.615168 19.865961-29.257143 0-13.003175-7.946384-24.561552-19.865961-29.257143l-465.585891-172.292063c-7.223986-2.889594-15.53157-2.889594-23.116755 0L75.851852 650.02328c-11.558377 5.417989-18.782363 16.615168-18.421164 29.257143 0.361199 12.641975 7.946384 23.839153 19.504762 28.895944z m338.082539-819.922399L25.283951 108.946737c-9.752381 5.417989-15.53157 15.892769-15.892769 26.728748V574.893827C9.029982 585.368607 14.447972 595.120988 23.116755 600.900176c8.668783 5.779189 19.865961 6.862787 29.257143 2.889595l390.095238-170.847267c11.558377-5.05679 18.782363-16.615168 18.782363-28.895943v-487.619048c0.361199-11.197178-5.05679-21.671958-14.809171-27.451146-9.752381-6.140388-21.671958-6.501587-31.424339-0.722399zM106.914991 367.204233c0-10.835979 5.779189-20.949559 15.170371-26.728748l175.904056-107.27619c9.752381-5.779189 21.671958-5.779189 31.063139-0.3612 9.752381 5.417989 15.53157 15.892769 15.53157 27.089947 0 10.835979-5.779189 21.310758-15.17037 26.728748L153.870899 393.932981c-9.752381 5.779189-21.671958 5.779189-31.063139 0.361199-10.11358-5.417989-15.892769-15.892769-15.892769-27.089947z m0 0"  horiz-adv-x="1024" />
      
      <glyph glyph-name="wuzilingyong" unicode="&#59000;" d="M985.712875 77.161199c-15.53157 10.47478-201.188007 165.068078-211.301588 178.071252-7.223986 6.140388-16.253968 9.752381-26.006349 10.47478h-308.825397c-23.116755 0-49.123104-5.05679-49.123104-46.594709 0.361199-28.534744 20.949559-52.373898 49.123104-56.708289 26.006349-5.05679 90.299824-10.47478 136.533334-13.003175 15.53157 0 0-10.47478 0-10.474779l-59.236685-38.648325H310.631393s-85.604233 59.597884-139.061728 98.246208c-90.299824 59.236684-123.530159 0-123.530159 0s-10.47478-20.58836 0-33.591534c49.123104-41.17672 221.415168-185.295238 233.695944-195.770018 7.946384-6.140388 18.421164-7.946384 28.173545-5.05679h356.503703c16.976367-1.444797 32.869136-7.585185 46.594709-18.059965l69.711464-56.708289c28.173545-20.58836 44.066314 0 44.066314 0l159.288889 163.262081c-0.361199 0 15.17037 14.447972-0.361199 24.561552zM730.706173 883.719224h-476.783069c-11.919577 0.722399-23.839153-4.334392-31.785538-13.364374-7.946384-9.029982-11.558377-21.310758-9.391182-33.230335v-340.249735c-0.361199-15.53157 7.585185-30.340741 20.58836-38.648325l265.481482-167.596473 257.535097 167.596473c13.003175 8.668783 20.58836 23.116755 20.58836 38.648325V837.485714c0 12.280776-4.695591 24.200353-13.364374 32.869136-9.029982 8.668783-20.58836 13.364374-32.869136 13.364374z m-148.091711-404.54321h-175.904056c-16.253968 0-29.257143 13.003175-29.257143 29.257143s13.003175 29.257143 29.257143 29.257143h176.265255c16.253968 0 29.257143-13.003175 29.257143-29.257143s-13.003175-29.257143-29.257143-29.257143h-0.361199z m57.791887 117.75097H347.473721c-7.946384-0.361199-15.53157 2.528395-21.310758 7.946385-5.779189 5.779189-8.668783 13.364374-7.946385 21.310758-0.361199 7.946384 2.528395 15.53157 7.946385 21.310758 5.779189 5.779189 13.364374 8.668783 21.310758 7.946385h292.932628c7.946384 0.361199 15.53157-2.528395 21.310759-7.946385 5.779189-5.779189 8.668783-13.364374 7.946384-21.310758 0.361199-7.946384-2.528395-15.53157-7.946384-21.310758-5.779189-5.417989-13.364374-8.307584-21.310759-7.946385z m0 117.75097H347.473721c-7.946384-0.361199-15.53157 2.528395-21.310758 7.946385-5.779189 5.779189-8.668783 13.364374-7.946385 21.310758-0.361199 7.946384 2.528395 15.53157 7.946385 21.310758 5.779189 5.779189 13.364374 8.668783 21.310758 7.946385h292.932628c7.946384 0.361199 15.53157-2.528395 21.310759-7.946385 5.779189-5.779189 8.668783-13.364374 7.946384-21.310758 0.361199-7.946384-2.528395-15.892769-7.946384-21.310758-5.417989-5.779189-13.364374-8.668783-21.310759-7.946385z m0 0"  horiz-adv-x="1024" />
      
      <glyph glyph-name="zhuzhicaigou1" unicode="&#59001;" d="M568.16649 106.057143l-11.197178 113.416578c-27.451146-0.361199-54.902293 1.083598-81.99224 3.611993 0 0 39.009524-87.04903 40.815521-105.470194 1.805996-18.421164-36.842328-56.34709-17.337567-61.765079 29.257143-7.946384 61.40388 3.973192 62.126279 4.334391-0.722399 23.116755-11.558377 61.40388 7.585185 45.872311zM287.514638 681.808818c2.889594 1.083598 6.140388 1.805996 9.029983 2.528395 5.417989 1.083598 10.47478 1.805996 15.892769 2.528395-22.394356 15.53157-42.621517 34.675132-91.744621 48.400706-19.504762 5.417989-38.648325 8.668783-57.069489 9.391182 4.334392-18.421164 7.585185-32.869136 11.197179-46.594709 34.675132-10.835979 53.818695-27.089947 112.694179-16.253969z m727.816579 5.41799c1.805996 3.611993 3.611993 7.223986 5.417989 9.752381 1.083598 1.805996-13.725573 1.083598-16.253968-3.611993-0.361199-0.361199-0.361199-1.083598-0.722398-1.444797-13.364374 2.528395-25.64515-3.250794-33.591535-15.892769-7.585185 1.444797-15.17037 1.083598-21.671958-0.722399-15.53157-5.05679-20.22716-19.865961-20.588359-36.481129-2.889594 3.611993-6.140388 7.223986-9.029983 10.113581-15.17037 17.337566-33.952734 30.340741-54.179894 35.75873-180.960847 43.705115-368.062081 43.705115-549.022928 0l-9.752381-3.250794C210.217989 657.608466 205.883598 699.868783 104.025397 690.116402c-22.394356-2.167196-43.705115-6.501587-63.209877-12.641975 23.477954-39.009524 34.313933-58.875485 63.571076-91.383422 19.504762-21.671958 43.343915-39.731922 63.571076-57.791887-20.22716 14.086772-44.427513 26.728748-67.905467 41.17672-27.812346-28.895944-54.179894-56.34709-82.714639-66.46067-2.167196 2.889594-3.611993 4.695591-7.585185 4.69559-6.501587 0-9.752381-5.05679-9.752381-11.558377v-68.627866h71.156261c-11.197178-10.47478-22.394356-16.976367-33.591534-22.394356 19.504762-6.140388 40.81552-11.919577 63.209876-13.725573 1.805996 0 3.250794-0.722399 5.05679-1.083598 12.641975-32.869136 35.397531-61.765079 67.905468-69.711464 26.728748-6.501587 75.490653-28.895944 117.75097-45.511111 3.611993-2.167196 7.223986-3.973192 11.197178-5.779189 24.200353-45.87231 62.848677-123.168959 66.099471-154.593298 1.805996-16.253968-51.2903-72.601058-24.922752-78.741446 23.839153-5.417989 71.87866 10.47478 72.962258 10.835979-1.805996 26.367549-10.11358 63.571076 15.17037 45.87231l-12.280776 151.342504c92.10582-13.725573 184.934039-15.892769 277.039859-7.585185 11.558377-11.558377 25.64515-22.033157 41.537919-30.340741 26.006349-13.725573 52.735097-19.504762 74.407055-17.337566-1.444797-46.23351-18.421164-92.467019-18.421164-92.467019-2.889594-2.167196-65.377072-50.929101-43.343916-65.377072 19.865961-13.364374 73.323457-4.695591 74.768254-4.695591 7.946384 19.504762 3.250794 45.87231 27.451147 33.230335l57.430688 170.124868c1.083598 20.22716-23.477954 4.334392-15.170371 50.9291 31.063139 22.033157 54.179894 60.681481 60.320282 100.052205 9.391182 29.257143 15.17037 63.932275 15.170371 101.135802 0 43.343915-7.585185 83.075838-19.865961 114.500177 0.361199 0.361199 0.361199 1.083598 0.361199 1.444797-3.250794 11.919577-5.417989 24.200353-6.501588 36.842328-0.722399 9.029982-0.722399 18.421164 1.444798 27.089947 2.889594 10.835979 10.835979 9.391182 17.698765 4.695591-5.05679-14.086772-9.029982-40.093122 9.029982-37.925926 14.086772 1.805996 24.200353 10.835979 19.504762 28.173545-1.805996 7.223986-6.140388 11.919577-11.197178 15.531569 2.167196 5.417989 4.695591 10.11358 8.307584 14.086773 1.805996 2.167196 5.417989-0.361199 8.668783-4.334392-3.973192-12.641975-3.973192-26.367549 12.641975-22.755555 16.253968 2.889594 15.53157 19.865961 4.334392 28.173545z m0 0"  horiz-adv-x="1024" />
      
      <glyph glyph-name="dianpu" unicode="&#59002;" d="M735.040564 309.773545c-11.558377 0-20.58836-9.391182-20.588359-20.949559v-130.754145c0-8.668783-6.862787-15.53157-15.170371-15.531569H325.801764c-8.307584 0-15.17037 6.862787-15.170371 15.531569v130.392946c0 11.558377-9.391182 20.949559-20.588359 20.949559-11.558377 0-20.58836-9.391182-20.58836-20.949559v-130.392946c0-31.424339 25.283951-57.069489 56.708289-57.069488h373.118871c31.424339 0 56.708289 25.64515 56.708289 57.069488V289.185185c-0.361199 11.197178-9.752381 20.58836-20.949559 20.58836z m0 0M688.445855 531.188713H330.136155c-6.501587 0-11.919577-5.417989-11.919577-11.919577v-13.725573c0-6.501587 5.417989-11.919577 11.919577-11.919577h358.3097c6.501587 0 11.919577 5.417989 11.919577 11.919577v13.725573c0 6.501587-5.417989 11.919577-11.919577 11.919577z m0 0M826.062787 472.674427c-0.361199 4.334392-5.779189 16.253968-10.113581 24.200353-0.361199 0.722399-0.722399 1.805996-1.083598 2.528395l-80.186243 145.924515-2.167196 3.611993c-0.361199 0.722399-0.722399 1.083598-1.444797 1.805996-3.611993 5.417989-11.558377 16.615168-29.618342 16.615168H316.049383c-10.11358 0-21.671958-5.779189-29.257143-14.809172l-1.444797-2.167195-79.825044-143.75732c-1.083598-2.167196-1.805996-3.973192-2.167196-6.140388 0-0.361199-0.361199-1.083598-0.361199-1.444797-28.173545-89.216226 42.260317-161.817284 112.694179-164.706878 43.343915 0 81.631041 22.755556 103.302999 57.069489 22.033157-34.313933 59.597884-57.069489 102.2194-57.069489 42.982716 0 80.908642 23.116755 102.941799 58.153086 20.22716-35.397531 57.069489-57.791887 101.135802-57.791887 32.869136 0 60.320282 14.086772 79.102646 46.23351 13.725573 24.200353 26.728748 47.317108 21.671958 91.744621z m-50.929101-70.795062c-12.641975-18.782363-30.340741-24.922751-48.761905-24.922751-41.17672 0-71.51746 28.173545-77.657848 68.989065 0 7.585185-7.585185 15.17037-14.809171 15.17037h-19.143563c-7.585185-0.361199-12.641975-6.140388-12.280776-15.17037 0.722399-43.343915-39.009524-69.350265-81.63104-69.350265-41.899118 0-76.57425 32.869136-81.269842 75.129454-0.722399 5.417989-5.05679 9.752381-10.474779 9.752381h-6.140388c-3.250794 0.361199-6.862787 0-10.11358 0h-3.973193c-6.140388 0-12.280776-5.05679-12.641975-11.558378-4.334392-41.17672-39.009524-72.239859-80.908642-72.239859-45.511111-0.361199-91.022222 65.738272-75.851852 107.276191 1.083598 2.167196 2.167196 4.695591 3.611993 7.585185L317.855379 625.100529h380.342857c0.361199-0.361199 0.361199-0.722399 0.722399-1.083598l81.99224-143.03492c3.250794-3.611993 6.862787-14.809171 7.223986-15.892769l0.722398-1.444798c5.417989-22.394356-6.862787-51.2903-13.725573-61.765079z m0 0"  horiz-adv-x="1024" />
      
      <glyph glyph-name="zhuzhixiaoshou1" unicode="&#59003;" d="M513.625397 569.114638c0 84.881834 68.627866 153.5097 153.5097 153.8709 84.881834 0 153.5097-68.989065 153.5097-153.8709s-68.627866-153.5097-153.5097-153.5097c-84.520635 0-153.5097 68.627866-153.5097 153.5097m495.926631 225.38836c0 48.400705-39.370723 87.410229-85.965432 87.41023-1.444797 0-153.148501 5.779189-267.648677 5.779188-131.837743 0-143.757319-6.501587-157.844092-20.58836L294.377425 663.387654 32.869136 401.518166c-34.313933-34.313933-33.952734-89.938624 0.361199-124.252558l372.035273-372.035273c16.615168-16.615168 38.648325-25.64515 62.487478-25.64515 23.477954 0 45.511111 9.029982 61.76508 25.64515l291.126631 291.126631 174.459259 174.45926c14.809171 15.17037 29.257143 29.618342 14.447972 423.686772"  horiz-adv-x="1024" />
      
      <glyph glyph-name="jianguandaping1" unicode="&#58997;" d="M785.97078 192.980639H237.177812C193.269509 192.980639 154.834541 227.03694 154.834541 265.958427V655.051669c0 38.921487 38.434969 72.977788 82.343271 72.977788h548.792968c43.908303 0 82.343271-34.056301 82.343272-72.977788V265.958427c0-38.921487-38.434969-72.977788-82.343272-72.977788z m-349.320346 92.073643c10.946668 0 27.366671 10.946668 27.36667 27.4883V477.229125c0 16.420002-10.946668 27.4883-27.36667 27.4883-16.541632 0-27.4883-10.946668-27.488301-27.4883v-164.686543c0.12163-16.420002 11.068298-27.4883 27.488301-27.4883z m120.778239 0c16.420002 0 27.4883 10.946668 27.488301 27.4883V394.885853c0 16.420002-10.946668 27.4883-27.488301 27.488301-16.420002 0-27.4883-10.946668-27.4883-27.488301v-82.343271c0-16.420002 10.946668-27.4883 27.4883-27.4883z m120.65661 0c16.541632 0 27.4883 10.946668 27.488301 27.4883v27.488301c0 16.420002-10.946668 27.4883-27.488301 27.4883-16.420002 0-27.366671-10.946668-27.36667-27.4883v-27.488301c0-16.420002 10.946668-27.366671 27.36667-27.4883z m-362.09146 0c10.946668 0 27.4883 10.946668 27.488301 27.4883V559.572396c0 16.420002-10.946668 27.4883-27.488301 27.4883-16.420002 0-27.4883-10.946668-27.4883-27.4883v-247.029814c0-16.420002 10.946668-27.4883 27.4883-27.4883z m17.149781-143.036465h356.739755c28.096449 0 50.962822-22.866374 50.962822-50.962822 0-28.096449-22.866374-50.962822-50.962822-50.962823H333.143604c-28.096449 0-50.962822 22.866374-50.962822 50.962823 0 28.218078 22.866374 50.962822 50.962822 50.962822z m0 0"  horiz-adv-x="1024" />
      
      <glyph glyph-name="fanzhilijihua" unicode="&#58978;" d="M504.832 748.544c197.632 0 357.888-160.256 357.888-357.888s-160.256-357.888-357.888-357.888-357.888 160.256-357.888 357.888 160.768 357.888 357.888 357.888z m0-65.024c-161.792 0-292.864-131.072-292.864-292.352 0-35.328 6.144-70.144 18.944-102.912L378.88 409.088c9.216 7.168 21.504 9.216 32.256 5.12l4.096-1.536 86.528-47.104L599.04 455.68h-59.904c-16.384 0-30.208 12.288-32.256 28.672v3.584c0 16.384 12.288 30.208 28.672 32.256H669.184c16.384 0 30.208-12.288 32.256-28.672v-133.12c0-17.92-14.848-32.256-32.768-32.256-16.384 0-30.208 12.288-32.256 28.672V402.432l-107.52-100.352c-9.216-8.704-22.016-10.752-33.792-6.656l-3.584 1.536-87.552 47.616-134.656-110.592c-2.56-2.048-5.12-3.584-7.68-4.608 89.088-135.168 270.336-172.032 405.504-83.456s172.032 270.336 83.456 405.504c-55.296 82.944-146.944 132.096-245.76 132.096z"  horiz-adv-x="1024" />
      
      <glyph glyph-name="chanfangfenxi" unicode="&#58979;" d="M854.016 550.4c-83.968 56.32-301.568 182.784-301.568 182.784-16.384 9.728-37.376 9.728-54.272 0.512 0 0-232.96-130.56-317.44-185.856-18.432-12.288-28.672-32.768-27.136-54.784l38.4-431.104c0-16.896 14.336-30.208 31.232-30.208H419.84v241.152c0 12.8 10.24 23.04 23.04 23.04h167.936c12.8 0 23.04-10.24 23.04-23.04v-241.152h176.64c17.408 0 31.232 13.824 31.232 30.208l41.472 427.52c2.048 24.576-8.704 47.616-29.184 60.928zM606.208 476.16l-60.416-1.024v-55.808c0-10.752-12.288-19.456-27.136-19.456S491.52 408.576 491.52 419.328V474.112l-59.904-1.024c-10.752 0-19.456 11.776-19.968 27.136 0 14.848 8.192 27.136 18.944 27.648l60.416 1.024V594.432c0 10.752 12.288 19.456 27.136 19.456s27.136-8.704 27.136-19.456v-65.024l59.904 1.024c10.752 0 19.456-11.776 19.968-27.136 0.512-14.848-8.192-27.136-18.944-27.136z"  horiz-adv-x="1024" />
      
      <glyph glyph-name="cunlanhuizong" unicode="&#58980;" d="M592.384 433.664c-10.752 18.432-25.6 33.28-44.032 44.032V751.104c174.592-1.024 315.904-142.336 316.928-316.928h-272.896z m-104.96 61.44c-67.584 0-121.856-54.272-122.368-121.856 0-67.584 54.272-121.856 121.856-122.368 32.256 0 63.488 12.8 86.528 35.84 1.024 1.024 2.048 2.048 2.56 3.072 4.608 4.608 8.704 9.728 12.288 14.848 2.048 3.072 4.096 6.656 5.632 10.24 2.048 3.584 4.096 7.168 5.632 10.752 2.048 4.608 3.072 9.728 4.608 14.336 1.024 2.56 2.048 5.632 2.56 8.192 1.024 5.632 1.536 10.752 1.536 16.384 0 2.56 1.024 5.632 1.024 8.192h219.648c0-188.416-152.576-341.504-341.504-341.504-188.416 0-341.504 152.576-341.504 341.504 0 188.416 152.576 341.504 341.504 341.504v-219.136z"  horiz-adv-x="1024" />
      
      <glyph glyph-name="fenmiantishi" unicode="&#58981;" d="M709.12 325.632l68.096-90.624c72.704 51.2 92.16 114.688 92.16 201.728 0 152.064-130.048 274.944-317.952 274.944-66.56 0-126.464-18.432-126.464-18.432s-102.4 50.176-154.624 39.424c-53.76-30.208-4.096-68.608 20.992-94.208-52.224-47.104-85.504-108.032-90.112-175.104-11.776-30.72-18.944-7.168-32.768-25.088-6.656-8.704-22.016-81.92-1.536-109.568 33.28-29.696 52.736 3.072 89.6-36.864 17.92-23.04 39.936-43.52 65.536-61.44 6.656-6.656-18.432-20.48-7.168-58.88 7.168-14.336 69.12-16.384 87.552-8.192 11.264 9.216 0 19.456 7.68 21.504l13.824-4.608c7.68-6.144-9.728-44.032 20.992-43.52 9.728-2.048 32.768-1.024 56.832-0.512 13.312 4.096 9.216 25.088 13.312 25.088 9.728-1.024 19.968-1.536 30.208-1.536l124.416 166.4c10.752 10.752 28.672 10.752 39.424-0.512zM264.704 446.464c-14.848 0-26.624 11.776-26.624 26.624 0 14.848 11.776 26.624 26.624 26.624 14.848 0 26.624-11.776 26.624-26.624 0-14.848-11.776-26.624-26.624-26.624z m375.296-116.224c-2.56-2.56 7.68-8.704 3.072-25.088-3.072-6.144-29.184-7.168-36.864-3.584-4.608 4.096 0 8.192-3.072 9.216-2.048-0.512-4.096-1.536-5.632-2.048-3.072-2.56 4.096-18.432-8.704-18.432-4.096-1.024-13.824-0.512-24.064 0-5.632 1.536-4.096 10.752-5.632 10.752-5.632-0.512-11.776-1.024-17.92-1.024-16.896 0-27.136 0.512-41.472 4.608-9.216 1.536 3.584-11.776-4.096-13.312-2.56 1.024-29.696-3.584-34.816 2.56-9.216 7.68 0 31.232-7.68 34.816-34.816 22.016-43.52 49.664-43.52 88.576 0 64 54.784 116.224 134.144 116.224 28.16 0 53.248-7.68 53.248-7.68s43.008 20.992 65.024 16.896c22.528-12.8 1.536-28.672-8.704-39.936 22.016-19.968 36.352-45.568 38.4-73.728 5.12-12.8 7.68-3.072 13.824-10.752 2.56-3.584 9.216-34.816 0.512-46.08-13.824-12.288-22.528 1.024-37.888-15.872-8.192-10.24-17.408-18.944-28.16-26.112zM862.72 77.312l-155.136 207.36c-9.216 9.216-24.576 9.216-33.792 0l-155.136-207.36c-11.264-11.264-3.072-30.72 12.8-30.72H849.92c15.872 0 24.064 19.456 12.8 30.72z m-157.696 154.112l-4.608-105.984h-16.384l-4.608 105.984h25.6z m-2.56-143.36c-3.072-2.56-6.656-4.096-10.752-4.096s-7.68 1.536-10.752 4.096c-3.072 3.072-4.608 6.656-4.608 10.752 0 4.608 1.536 7.68 4.608 10.752 2.56 2.56 6.144 4.096 10.752 4.096 4.608 0 8.192-1.536 10.752-4.096 3.072-2.56 4.096-6.144 4.096-10.752 0.512-4.608-1.024-8.192-4.096-10.752z"  horiz-adv-x="1024" />
      
      <glyph glyph-name="daipeitishi" unicode="&#58982;" d="M368.128 332.8l-74.24-62.464c-4.096-3.584-6.144-8.704-6.144-13.824l-7.168-7.168c-30.208-30.208-38.912-48.64-41.472-55.296-9.728-8.192-19.456-25.088-26.112-44.544-9.728-27.648-0.512-53.76 30.72-56.32 30.72-2.56 46.592 21.504 39.936 50.176-4.608 20.992-10.752 40.96-19.968 50.176 5.12 19.456 24.064 36.352 36.352 46.08 5.632-2.048 12.288-1.024 16.896 3.072l74.24 62.464c7.68 6.144 8.192 17.408 2.048 25.088-6.656 7.68-17.408 8.704-25.088 2.56z m423.936 333.312c-75.264 89.6-208.896 101.376-298.496 26.112-57.344-48.128-82.432-120.32-73.728-189.44l4.608 3.584v-2.048c-3.584-1.536-7.168-4.096-10.24-6.656-22.528-18.944-25.088-52.224-6.656-74.752l5.632-6.656L264.192 291.84c-15.36-12.8-21.504-32.768-17.92-51.2-22.016-6.656-46.08-43.52-61.952-88.064-17.408-49.664-1.024-95.232 54.784-100.352 54.784-4.608 82.944 37.888 71.168 89.088-4.608 20.48-10.24 40.448-16.384 56.832 13.312-1.024 27.136 3.072 38.4 12.288L481.28 335.36l5.632-6.656c18.944-22.528 52.224-25.6 74.752-6.656 4.608 4.096 8.192 8.704 11.264 13.312l3.584-1.024-9.216-7.68c66.56-20.48 141.312-8.192 198.656 39.936 89.6 75.776 101.376 209.408 26.112 299.52z m-471.04-442.368c-10.24-8.192-23.552-10.24-34.816-6.144l-13.824-11.776c10.24-13.824 17.408-37.888 23.552-63.488 8.704-38.912-12.288-71.168-54.272-67.584-42.496 3.584-54.784 38.4-41.472 76.288 11.776 32.768 29.184 60.416 45.568 66.56l-6.144 7.168 24.064 19.968c-2.048 11.776 2.048 24.576 12.288 33.28L424.96 402.944l45.568-54.272-149.504-124.928z m417.28 394.24c-4.608-4.096-11.776-3.584-16.384 0.512l-0.512-0.512c-46.08 47.616-121.344 52.224-173.568 10.24-0.512-1.024-1.024-2.048-2.048-2.56-5.12-4.608-13.312-3.584-17.408 1.536-4.608 5.12-3.584 13.312 1.536 17.408 0 0 0.512 0.512 1.024 0.512l-1.024 1.024c61.952 52.224 152.576 47.104 208.384-9.216 0.512-0.512 1.024-0.512 1.536-1.024v-0.512l0.512-0.512c3.584-6.144 2.56-12.8-2.048-16.896zM833.536 74.752l-161.28 216.064c-9.728 9.728-25.6 9.728-35.328 0l-161.28-216.064c-11.776-11.776-3.584-32.256 13.312-32.256h331.776c16.384 0.512 24.576 20.48 12.8 32.256z m-164.352 160.256l-5.12-110.08h-16.896l-5.12 110.08h27.136z m-2.048-149.504c-3.072-3.072-7.168-4.096-11.264-4.096-4.096 0-8.192 1.536-10.752 4.608-3.072 3.072-4.608 6.656-4.608 10.752 0 4.608 1.536 8.192 4.608 10.752 3.072 3.072 6.656 4.096 10.752 4.096 4.608 0 8.704-1.536 11.264-4.096 3.072-2.56 4.608-6.144 4.608-10.752 0-4.096-1.536-8.192-4.608-11.264z"  horiz-adv-x="1024" />
      
      <glyph glyph-name="chengbenbiandonghuizong" unicode="&#58983;" d="M849.408 188.416h-167.424c-28.16-35.84-64-65.024-104.448-86.016h271.872c15.872 0 28.672 12.8 28.672 28.672v28.672c-0.512 15.872-13.312 28.672-28.672 28.672z m0 161.792h-99.328c-3.584-29.184-11.264-58.368-22.528-86.016H849.92c15.872 0 28.672 12.8 28.672 28.672v28.672c-1.024 16.384-13.824 28.672-29.184 28.672z m0 162.304H727.04c11.264-27.648 18.944-56.32 22.528-86.016h99.328c15.872 0 28.672 12.8 28.672 28.672v28.672c0 15.872-12.8 28.672-28.16 28.672z m0 161.792H578.56c40.448-20.992 75.776-50.176 103.936-86.016h166.912c15.872 0 28.672 12.8 28.672 28.672v28.672c-0.512 16.384-13.312 28.672-28.672 28.672z m-419.84 0.512C271.36 674.816 143.36 546.816 143.36 388.608S271.36 102.4 429.568 102.4s286.208 128 286.208 286.208-128 286.208-286.208 286.208z m90.112-282.112v-26.112H454.656l-0.512-0.512v-32.768h65.536v-26.112H454.144v-58.88H404.48V307.2H339.968v26.112h65.024v32.768l-0.512 0.512H339.968v26.112h50.176L314.368 529.408h55.808l59.392-118.784 59.392 118.784h55.808L469.504 392.704h50.176z"  horiz-adv-x="1024" />
      
      <glyph glyph-name="fenmianjihua" unicode="&#58984;" d="M598.016 241.664c13.312 27.648 35.84 50.176 63.488 63.488 64 30.72 126.976 20.48 172.032-12.8 35.84 45.056 47.104 98.816 47.104 165.888 0 159.744-136.704 289.792-334.336 289.792-69.632 0-133.12-19.456-133.12-19.456s-107.52 52.736-162.816 41.472c-56.832-32.256-4.608-71.68 22.528-98.816-54.784-49.664-90.112-113.664-95.232-184.32-12.288-32.256-19.456-7.68-34.304-26.624-7.168-9.216-23.04-86.528-1.536-115.2 34.816-31.232 55.808 3.072 94.208-38.912 18.944-24.064 42.496-46.08 68.608-64.512 6.656-6.656-19.456-21.504-7.68-61.952 7.68-15.36 72.704-17.408 92.16-8.704 11.776 9.728 0 20.48 8.192 22.528 4.608-1.536 9.728-3.584 14.336-5.12 8.192-6.144-10.24-46.592 22.016-45.568 10.24-2.048 34.304-1.024 59.904-0.512 13.824 4.096 9.728 26.624 13.824 26.112 14.848-1.536 29.696-2.048 44.544-2.048 10.24 0 19.456 0 27.648 0.512 0.512 23.552 6.144 49.152 18.432 74.752z m-353.28 226.816c-15.36 0-27.648 12.288-27.648 28.16 0 15.36 12.288 28.16 27.648 28.16 15.36 0 27.648-12.288 27.648-28.16 0.512-15.36-12.288-28.16-27.648-28.16z m309.248-153.088c-6.144-0.512-12.288-1.024-18.944-1.024-17.92 0-28.672 0.512-44.032 5.12-9.728 1.536 4.096-12.288-4.096-13.824-3.072 1.536-31.232-4.096-36.864 2.56-9.728 8.192 0 32.768-8.192 36.352-36.352 23.04-46.08 52.736-46.08 93.184 0 67.584 57.856 122.368 141.312 122.368 29.184 0 56.32-8.192 56.32-8.192s45.568 22.016 68.608 17.408c24.064-13.312 2.048-30.208-9.216-41.984 23.04-20.992 37.888-48.128 39.936-77.824 5.12-13.312 8.192-3.072 14.336-11.264 3.072-3.584 9.728-36.352 0.512-48.64-14.848-13.312-23.552 1.024-39.936-16.384-8.192-10.24-17.92-19.456-29.184-27.136-3.072-3.072 8.192-9.216 3.072-26.112-3.072-6.656-30.72-7.168-38.912-3.584-5.12 4.096 0 8.704-3.584 9.728-2.048-0.512-4.096-1.536-6.144-2.048-3.584-2.56 4.096-19.456-9.216-19.456-4.096-1.024-14.336-0.512-25.088 0-4.608 1.536-3.072 10.752-4.608 10.752zM755.712 159.744v68.608c-13.824 15.872-31.744 6.144-31.744-7.68v-79.36l68.608-39.936c7.68-4.096 17.408-1.536 21.504 6.144 4.096 7.68 1.536 16.896-5.632 21.504l-52.736 30.72z m45.056-110.08c-116.224-55.808-229.888 57.856-174.08 174.08 10.752 22.016 28.672 39.936 50.688 50.688 116.224 55.808 229.888-57.856 174.08-174.08-10.752-22.016-28.672-39.936-50.688-50.688z"  horiz-adv-x="1024" />
      
      <glyph glyph-name="houbeizhuangongzhu" unicode="&#58985;" d="M531.456 232.96c9.728-8.704 12.288-25.6 12.288-37.888v-24.064l-7.68-6.656v24.064c-0.512 9.216-2.56 18.432-6.656 27.136 1.024-5.632 1.024-11.264 1.024-16.896 0-14.336-10.24-43.008-11.776-47.104l20.992-28.16-5.12-82.432v-1.024h-26.112v4.608l6.144 38.912-2.048 8.192-18.432 11.776-20.48-63.488h-26.112v4.096l17.92 39.424-0.512 7.68-27.136 19.968-9.216 31.744h-22.016l-57.344-10.752v-10.24l-23.04-81.92v-0.512h-26.112v4.096l13.312 39.424v8.192l-6.144 20.48-33.792-72.704h-26.112v4.608l20.992 39.424 1.024 8.192-4.608 31.744-13.824 32.256c-3.584-2.048-7.68-3.072-11.776-3.072h-10.24c-13.312 0-26.112 4.608-36.864 12.288l-13.824 5.632-28.672-8.192-19.456 51.2v1.024l13.312 5.632 3.072-2.56 10.24 5.632c-1.024 8.192-1.024 15.872 0.512 24.064l4.096 8.192 0.512-2.048c1.536-7.68 4.096-15.36 6.656-23.04l20.992 13.312 16.896 20.992 5.12 10.752-16.896 46.08-0.512 1.024h9.216l13.312-7.68-2.56 6.656-0.512 1.024h9.216l10.752-6.656H322.56l78.336-12.8h38.4c35.84 0 65.536-19.968 80.384-53.248 3.072-6.656 6.656-12.288 11.776-16.384zM417.28 477.184H332.8s-0.512 1.024-0.512 3.072c0 5.632 0 10.752 0.512 15.872 2.048 19.968 7.68 38.912 15.872 55.808 10.24 22.016 25.6 41.472 44.544 57.856 16.896 14.848 35.84 25.6 55.808 33.28 18.944 6.656 35.328 10.24 52.224 11.264l15.872 1.024V720.896l-17.92-1.024c-10.752-0.512-20.48-1.536-29.184-3.584-47.104-8.704-89.088-28.672-124.416-58.88-35.328-30.72-59.904-68.608-73.728-112.64-6.144-19.456-9.216-39.936-9.216-61.952 0-4.096-0.512-5.12-0.512-5.12s-1.536-0.512-5.12-0.512H184.832l115.712-109.568c0-0.512 116.736 109.568 116.736 109.568zM846.848 509.44h-188.416c-23.04 0-41.472 18.432-41.472 41.472V697.344c0 23.04 18.432 41.472 41.472 41.472h188.416c23.04 0 41.472-18.432 41.472-41.472v-146.432c0-22.528-18.944-41.472-41.472-41.472zM691.712 312.832h83.968s0.512-1.024 0.512-3.072c0-5.632 0-10.752-0.512-15.872-2.048-19.968-7.68-38.912-15.872-55.808-10.24-22.016-25.6-41.472-44.544-57.856-16.896-14.848-35.84-25.6-55.808-33.28-18.944-6.656-35.328-10.24-52.224-11.264l-15.872-1.024v-65.536l17.92 1.024c10.752 0.512 20.48 1.536 29.184 3.584 47.104 8.704 89.088 28.672 124.416 58.88 35.328 30.72 59.904 68.608 73.728 112.64 6.144 19.456 9.216 39.936 9.216 61.952 0 4.096 0.512 5.12 0.512 5.12s1.536 0.512 5.12 0.512h72.704l-115.712 109.568c0 0.512-116.736-109.568-116.736-109.568z"  horiz-adv-x="1024" />
      
      <glyph glyph-name="renjianjihua" unicode="&#58986;" d="M758.784 159.232v59.392c0 8.704-6.656 15.36-15.36 15.36s-15.36-6.656-15.36-15.36v-77.312l66.56-38.4c7.168-4.096 16.896-1.536 20.992 5.632 4.096 7.168 1.536 16.896-5.632 20.992l-51.2 29.696z m-16.384-121.344c-68.096 0-123.392 55.296-123.392 123.392s55.296 123.392 123.392 123.392 123.392-55.296 123.392-123.392-55.296-123.392-123.392-123.392zM173.568 343.04h130.048c14.336 0 26.112-11.776 26.112-26.112s-11.776-26.112-26.112-26.112h-18.944c29.184-37.376 74.752-61.952 125.952-61.952 88.064 0 159.744 71.68 159.744 160.256 0 64-37.376 118.784-91.136 144.896L363.008 417.792c-18.432-18.432-48.64-18.432-67.584 0-18.432 18.432-18.432 48.64 0 67.584l189.952 189.952c10.24 10.24 24.576 14.848 38.4 13.824l47.616 47.616c11.776 11.776 31.232 11.776 43.008 0s11.776-31.232 0-43.008l-47.616-47.616c1.536-13.824-3.072-27.648-13.824-38.4l-12.288-12.288c68.096-43.008 113.152-119.296 113.152-206.336 0-114.688-79.36-210.944-185.856-237.056v-34.816h82.432c33.28 0 60.416-27.136 60.416-60.416 0-3.072-0.512-5.632-1.024-8.704H215.04c-0.512 3.072-1.024 5.632-1.024 8.704 0 33.28 27.136 60.416 60.416 60.416h80.896v34.304c-75.264 17.408-137.216 69.632-167.936 139.264h-13.824c-14.336 0-26.112 11.776-26.112 26.112s11.776 26.112 26.112 26.112z m375.296 292.352c0.512 2.048 0.512 3.584 0.512 5.632l-1.536-1.536c0-1.536 0.512-2.56 1.024-4.096z m40.448 82.944c4.096 4.096 9.728 4.608 14.848 2.56-0.512 1.536-1.536 2.56-2.56 3.584-5.12 5.12-13.312 5.12-18.432 0l-54.272-54.272c-10.752 3.584-23.04 1.536-31.744-7.168l-189.44-189.952c-11.776-11.776-11.776-31.232 0-43.008 7.68-7.68 17.92-10.24 27.648-8.192-5.632 1.024 7.168 5.12 2.048 8.192-11.776 6.656-11.776 31.232 0 43.008l168.96 168.96c8.704 8.704 20.992 10.752 31.744 7.168l51.2 69.12z"  horiz-adv-x="1024" />
      
      <glyph glyph-name="houbeizhuanmuzhu" unicode="&#58987;" d="M619.008 302.08h83.968s0.512-1.024 0.512-3.072c0-5.632 0-10.752-0.512-15.872-2.048-19.968-7.68-38.912-15.872-55.808-10.24-22.016-25.6-41.472-44.544-57.856-16.896-14.848-35.84-25.6-55.808-33.28-18.944-6.656-35.328-10.24-52.224-11.264l-15.872-1.024v-65.536l17.92 1.024c10.752 0.512 20.48 1.536 29.184 3.584 47.104 8.704 89.088 28.672 124.416 58.88 35.328 30.72 59.904 68.608 73.728 112.64 6.144 19.456 9.216 39.936 9.216 61.952 0 4.096 0.512 5.12 0.512 5.12s1.536 0.512 5.12 0.512h72.704l-115.712 109.568c0 0.512-116.736-109.568-116.736-109.568zM189.44 286.72h188.416c23.04 0 41.472-18.432 41.472-41.472v-146.432c0-23.04-18.432-41.472-41.472-41.472H189.44c-23.04 0-41.472 18.432-41.472 41.472v146.432c0 23.04 18.432 41.472 41.472 41.472zM344.064 466.432H260.096s-0.512 1.024-0.512 3.072c0 5.632 0 10.752 0.512 15.872 2.048 19.968 7.68 38.912 15.872 55.808 10.24 22.016 25.6 41.472 44.544 57.856 16.896 14.848 35.84 25.6 55.808 33.28 18.944 6.656 35.328 10.24 52.224 11.264l15.872 1.024V710.144l-17.92-1.024c-10.752-0.512-20.48-1.536-29.184-3.584-47.104-8.704-89.088-28.672-124.416-58.88-35.328-30.72-59.904-68.608-73.728-112.64-6.144-19.456-9.216-39.936-9.216-61.952 0-4.096-0.512-5.12-0.512-5.12s-1.536-0.512-5.12-0.512H112.128l115.712-109.568c0-0.512 116.224 109.568 116.224 109.568zM711.168 460.8l-4.608 47.104c-11.264 0-22.528 0.512-34.304 1.536 0 0 16.384-36.352 16.896-44.032 0.512-7.68-15.36-23.552-7.168-25.6 12.288-3.072 25.6 1.536 25.6 2.048 0.512 9.728-4.096 25.6 3.584 18.944z m-116.224 239.616c1.024 0.512 2.56 1.024 3.584 1.024 2.048 0.512 4.608 0.512 6.656 1.024-9.216 6.656-17.92 14.336-38.4 19.968-8.192 2.56-15.872 3.584-23.552 4.096 1.536-7.68 3.072-13.824 4.608-19.456 14.336-4.608 22.528-11.264 47.104-6.656z m302.08 2.048c0.512 1.536 1.536 3.072 2.048 4.096 0.512 1.024-5.632 0.512-6.656-1.536 0 0 0-0.512-0.512-0.512-5.632 1.024-10.752-1.536-13.824-6.656-3.072 0.512-6.144 0.512-9.216-0.512-6.144-2.048-8.704-8.192-8.704-14.848-1.024 1.536-2.56 3.072-3.584 4.096-6.144 7.168-14.336 12.288-22.528 14.848a478.4128 478.4128 0 0 1-228.352 0c-1.536-0.512-2.56-1.024-4.096-1.536-39.424-10.24-40.96 7.68-83.456 3.584-9.216-1.024-17.92-2.56-26.112-5.12 9.728-16.384 14.336-24.576 26.624-37.888 8.192-8.704 17.92-16.384 26.624-24.064-8.192 6.144-18.432 11.264-28.16 16.896-11.264-12.288-22.528-23.552-34.304-27.648-1.024 1.024-1.536 2.048-3.072 2.048-2.56 0-4.096-2.048-4.096-4.608v-28.672h29.696c-4.608-4.608-9.216-7.168-13.824-9.216 8.192-2.56 16.896-5.12 26.112-5.632 0.512 0 1.536-0.512 2.048-0.512 5.12-13.824 14.848-25.6 28.16-29.184 11.264-2.56 31.232-11.776 49.152-18.944 1.536-1.024 3.072-1.536 4.608-2.56 10.24-18.944 26.112-51.2 27.648-64 0.512-6.656-21.504-30.208-10.24-32.768 9.728-2.048 29.696 4.096 30.208 4.608-0.512 11.264-4.096 26.624 6.144 18.944l-5.12 62.976c38.4-5.632 76.8-6.656 115.2-3.072 4.608-4.608 10.752-9.216 17.408-12.8 10.752-5.632 22.016-8.192 30.72-7.168-0.512-19.456-7.68-38.4-7.68-38.4-1.024-1.024-27.136-20.992-17.92-27.136 8.192-5.632 30.72-2.048 31.232-2.048 3.072 8.192 1.536 18.944 11.264 13.824l24.064 70.656c0.512 8.192-9.728 2.048-6.144 20.992 12.8 9.216 22.528 25.088 25.088 41.472 4.096 12.288 6.144 26.624 6.144 41.984 0 17.92-3.072 34.304-8.192 47.616v0.512c-1.536 5.12-2.048 10.24-2.56 15.36-0.512 3.584-0.512 7.68 0.512 11.264 1.024 4.608 4.608 4.096 7.168 2.048-2.048-5.632-3.584-16.896 3.584-15.872 6.144 0.512 10.24 4.608 8.192 11.776-0.512 3.072-2.56 5.12-4.608 6.656 1.024 2.048 2.048 4.096 3.584 6.144 1.024 1.024 2.048 0 3.584-1.536-1.536-5.12-1.536-10.752 5.12-9.216 6.144 1.024 6.144 8.192 1.024 11.264z"  horiz-adv-x="1024" />
      
      <glyph glyph-name="shoucirenjiantishi" unicode="&#58988;" d="M472.576 40.448c-18.944 0-28.672 23.04-14.848 36.352l25.088 33.792v35.84c12.288 3.072 24.064 6.656 35.328 11.264l122.368 163.328c7.168 7.168 17.92 9.728 27.648 7.168 5.12 19.968 7.68 40.96 7.68 62.976 0 89.6-47.104 168.448-117.76 212.992l12.8 12.8c10.752 10.752 15.36 25.6 14.336 39.424l49.152 49.152c12.288 12.288 12.288 32.256 0 44.544-12.288 12.288-32.256 12.288-44.544 0l-49.152-49.152c-14.336 1.536-28.672-3.584-39.424-14.336L304.64 489.984c-19.456-19.456-19.456-50.176 0-69.632 19.456-19.456 50.688-19.456 69.632 0l120.32 120.32c55.808-26.624 94.72-83.456 94.72-149.504 0-91.136-74.24-165.376-165.888-165.376-53.248 0-100.352 25.088-130.56 63.488H312.32c14.848 0 27.136 11.776 27.136 26.624 0 14.848-12.288 26.624-27.136 26.624H177.664c-14.848 0-27.136-11.776-27.136-26.624 0-14.848 12.288-26.624 27.136-26.624h14.336c31.744-71.68 95.744-125.952 174.08-143.872v-35.328H282.112c-34.816 0-62.464-28.16-62.464-62.464 0-3.072 0.512-6.144 1.024-8.704H476.16v1.536h-3.584zM532.48 667.648l-179.712-179.2c-12.8-12.8-12.8-38.4 0-45.568 5.632-3.072-8.192-7.68-2.048-8.704-10.24-2.048-21.504 1.024-29.184 8.704-12.8 12.8-12.8 32.768 0 45.568l201.728 201.216c9.216 9.216 22.016 11.776 33.792 7.68L614.4 754.688c5.632 5.632 14.336 5.632 19.456 0 1.024-1.024 2.048-2.56 2.56-4.096-5.12 2.56-11.264 1.536-15.872-2.56l-54.784-73.216c-11.264 4.096-24.064 2.048-33.28-7.168zM867.328 72.704l-161.28 216.064c-9.728 9.728-25.6 9.728-35.328 0l-161.28-216.064c-11.776-11.776-3.584-32.256 13.312-32.256h331.776c15.872 0 24.576 19.968 12.8 32.256z m-164.352 159.744l-5.12-110.08H680.96l-5.12 110.08h27.136z m-2.048-148.992c-3.072-3.072-7.168-4.096-11.264-4.096s-8.192 1.536-10.752 4.608c-3.072 3.072-4.608 6.656-4.608 10.752 0 4.608 1.536 8.192 4.608 10.752 3.072 3.072 6.656 4.096 10.752 4.096 4.608 0 8.704-1.536 11.264-4.096 3.072-2.56 4.608-6.144 4.608-10.752 0-4.608-1.536-8.192-4.608-11.264z"  horiz-adv-x="1024" />
      
      <glyph glyph-name="xiaodujilu" unicode="&#58989;" d="M550.912 95.744c-2.56-0.512-5.632-1.536-8.192-2.048-27.648-4.096-55.296 9.728-68.096 34.816-10.24 21.504-14.848 45.568-12.8 69.632 0.512 4.608-2.56 8.704-6.656 9.728-99.328 39.424-198.144 79.872-297.472 119.808-4.096 1.536-8.192-1.024-8.704-5.12-1.536-10.24-3.584-20.48-3.584-30.208v-0.512c-3.584-35.84 7.168-71.168 29.696-99.328 15.36-16.896 34.304-30.208 55.808-38.4 74.24-33.28 147.968-66.56 222.208-99.84 25.6-12.8 54.272-18.432 82.432-16.384 17.92 0.512 35.84 4.608 52.224 11.264-15.36 13.824-27.648 29.184-36.864 46.592zM758.272 354.304c32.256 89.6 61.952 180.224 90.112 270.848 1.536 3.072 2.048 6.144 2.048 9.216 1.024 15.36-10.752 29.184-26.112 30.208L430.08 742.912h-0.512c-1.024 0.512-2.048 0.512-3.584 1.024-15.36 3.072-30.72-6.656-34.304-22.016L296.96 462.336 262.656 368.64c-2.56-4.608-3.584-10.24-2.56-15.872 2.048-14.848 15.36-25.6 30.72-24.064 11.776 2.048 20.992 10.752 24.064 22.528L420.864 640l14.336 39.424c1.024 3.072 4.608 5.12 7.68 4.096L788.48 614.4l-3.584 0.512c-3.584-11.776-7.168-23.04-11.264-34.304-24.064-73.728-49.152-147.456-74.752-220.672h9.216c16.896 1.536 33.792-1.024 50.176-5.632zM684.032 492.032v-1.024 1.024zM534.528 498.176l71.68-19.456c16.384-4.608 32.256-9.216 49.152-12.8h3.584c13.824 0.512 25.088 11.776 25.088 25.6-0.512 12.288-8.704 22.528-19.968 25.6l-31.232 8.704-81.408 21.504c-7.68 3.584-16.384 3.584-24.064 0-0.512 0-0.512-0.512-1.024-0.512-8.704-5.12-13.824-15.36-12.288-25.088 0-11.776 8.704-21.504 20.48-23.552zM467.456 420.352v-1.024c-3.584-14.336 5.632-29.184 19.968-32.256l111.104-37.888c0.512 0 1.024 0 1.024-0.512 3.584-0.512 7.168-0.512 10.752 0 7.168 0 13.824 2.56 18.944 7.68s7.68 11.776 7.168 18.944l-2.048 0.512c0 12.8-8.704 23.552-20.992 26.112l-76.288 25.088c-12.8 4.096-25.6 9.216-38.912 12.8-14.336 2.56-27.648-6.144-30.72-19.456zM415.744 462.848c-14.848 0-27.136-12.288-27.136-27.136 1.024-15.872 14.336-27.648 30.208-27.136 14.848 0.512 26.624 12.288 27.136 27.136 0 15.872-12.8 28.672-28.672 28.672l-1.536-1.536zM373.248 360.96c-14.848 0-27.136-11.776-27.648-26.624v-1.024c1.024-15.872 15.36-27.648 30.72-26.624 6.656 0 13.312 3.072 18.432 7.68 5.12 5.12 7.68 11.776 7.68 18.944v1.024c0 15.36-13.312 27.136-29.184 26.624zM460.288 330.752c-0.512 0-0.512 0-1.024 0.512-4.608 1.024-8.704 0.512-13.312 0-12.288-1.536-22.016-11.264-23.552-23.552-1.024-12.288 6.656-24.064 18.432-28.16l99.328-32.768c6.656 17.92 16.384 34.304 28.16 48.64l-108.032 35.328zM459.776 576c-7.168 0-13.824-2.56-18.944-7.68-5.12-4.608-8.192-11.776-8.192-18.944 0.512-15.872 13.824-27.648 29.184-27.136v0.512h2.56c13.824 0.512 25.088 11.776 24.576 25.6v2.048c-0.512 15.36-13.824 26.624-29.184 25.6zM735.744 321.536c-79.36 0-143.36-64.512-143.36-143.36 0-79.36 64.512-143.36 143.36-143.36s143.36 64.512 143.36 143.36c0 79.36-64 143.36-143.36 143.36z m-66.048-43.52h110.08c11.264 0 19.968-8.192 19.968-17.408 0-1.536-0.512-3.584-1.024-5.12-2.56-7.168-10.24-12.8-19.968-12.8h-0.512l-7.168-4.608c3.584-1.024 7.68-5.632 7.68-8.192s-3.072-5.12-6.656-5.12h-53.248c-3.584 0-6.656 2.048-6.656 5.12 0 2.56 5.12 8.192 8.704 8.192h2.048l-15.872 10.752c0-1.024-0.512-2.048-1.536-3.072l-14.848-18.944c-3.072-4.608-6.144-8.192-11.264-5.632-5.12 2.56-3.072 6.656 0 11.264l7.168 22.528-25.6 4.096 8.704 18.944z m137.216-211.968h-122.88c-7.168 0-13.312 5.12-13.312 11.264l44.032 112.128v15.36c0 6.144 5.632 11.264 13.312 11.264h35.328c7.168 0 13.312-5.12 13.312-11.264v-15.36l44.032-112.128c-0.512-6.144-6.656-11.264-13.824-11.264z"  horiz-adv-x="1024" />
      
      <glyph glyph-name="gongzhuxingnengfenxi" unicode="&#58990;" d="M546.816 451.072L510.464 558.08l-46.592-77.824h-41.472v-24.064h56.32l26.624 43.52 36.352-111.616 34.304 68.096h41.472v24.064h-56.32zM881.664 367.616v48.128c0 23.552-5.12 56.832-22.528 74.752-8.704 8.704-15.872 19.456-20.992 31.744-27.648 65.536-81.92 105.472-146.944 105.472h-70.144l-143.36 25.6H315.904l-19.456 13.312h-17.408l0.512-1.536 4.096-13.312-24.064 14.848h-16.896l0.512-2.048 30.72-90.624-9.728-20.992-30.72-41.984-37.888-26.624c-5.632 14.336-9.728 29.696-12.288 45.568l-1.024 4.096-7.68-16.384c-2.56-15.872-2.56-31.744-1.024-47.616l-18.432-11.264-5.12 5.12-24.576-10.752v-1.536l35.84-100.864 52.736 16.384 25.088-11.776c20.48-15.36 43.52-23.552 67.584-24.064h18.432c7.68 0 14.848 2.048 21.504 6.144l25.088-64 8.192-62.464-1.024-16.384-37.888-77.824v-9.216h47.616l61.44 143.872 11.264-40.96v-16.384l-24.064-77.824v-8.704h47.616v1.024l41.984 162.304V291.84l104.448 21.504h39.936l17.408-62.976 49.664-39.936 0.512-15.872-32.768-77.824v-8.704h47.616l37.376 125.44 33.792-23.552 4.096-15.872-10.752-77.312v-8.704h47.616v2.048l9.216 162.816-38.4 55.808c3.072 7.68 21.504 65.024 21.504 93.184 0 11.264-0.512 22.016-2.048 33.28 7.168-16.384 11.264-34.816 11.776-53.248v-48.128l13.824 13.824z m-361.472-20.992c-68.096 0-121.856 53.76-121.856 121.856s53.76 121.856 121.856 121.856 121.856-53.76 121.856-121.856-53.76-121.856-121.856-121.856z"  horiz-adv-x="1024" />
      
      <glyph glyph-name="fangzhijilu" unicode="&#58991;" d="M547.328 102.912c-2.56-0.512-5.632-1.536-8.192-2.048-27.648-4.096-55.296 9.728-68.096 34.816-10.24 21.504-14.848 45.568-12.8 69.632 0.512 4.608-2.56 8.704-6.656 9.728-99.328 39.424-198.144 79.872-297.472 119.808-4.096 1.536-8.192-1.024-8.704-5.12-1.536-10.24-3.584-20.48-3.584-30.208v-0.512c-3.584-35.84 7.168-71.168 29.696-99.328 15.36-16.896 34.304-30.208 55.808-38.4 74.24-33.28 147.968-66.56 222.208-99.84 25.6-12.8 54.272-18.432 82.432-16.384 17.92 0.512 35.84 4.608 52.224 11.264-14.848 13.312-27.136 29.184-36.864 46.592zM754.688 360.96c32.256 89.6 61.952 180.224 90.112 270.848 1.536 3.072 2.048 6.144 2.048 9.216 1.024 15.36-10.752 29.184-26.112 30.208l-394.24 78.336h-0.512c-1.024 0.512-2.048 0.512-3.584 1.024-15.36 3.072-30.72-6.656-34.304-22.016L293.888 469.504l-34.304-93.696c-2.56-4.608-3.584-10.24-2.56-15.872 2.048-14.848 15.36-25.6 30.72-24.064 11.776 2.048 20.992 10.752 24.064 22.528l105.984 288.768 14.336 39.424c1.024 3.072 4.608 5.12 7.68 4.096l345.6-69.12-3.584 0.512c-3.584-11.776-7.168-23.04-11.264-34.304-24.064-73.728-49.152-147.456-74.752-220.672h9.216c16.896 1.024 33.792-1.536 49.664-6.144zM680.448 499.2c0-0.512 0-0.512 0 0v-1.024 1.024zM530.944 504.832l71.68-19.456c16.384-4.608 32.256-9.216 49.152-12.8h3.584c13.824 0.512 25.088 11.776 25.088 25.6-0.512 12.288-8.704 22.528-19.968 25.6l-31.232 8.704-81.408 22.016c-7.68 3.584-16.384 3.584-24.064 0-0.512 0-0.512-0.512-1.024-0.512-8.704-5.12-13.824-15.36-12.288-25.088 0-12.288 8.704-22.016 20.48-24.064zM463.872 427.008v-1.024c-3.584-14.336 5.632-29.184 19.968-32.256l111.104-37.888c0.512 0 1.024 0 1.024-0.512 3.584-0.512 7.168-0.512 10.752 0 7.168 0 13.824 2.56 18.944 7.68s7.68 11.776 7.168 18.944l-2.048 0.512c0 12.8-8.704 23.552-20.992 26.112l-76.288 25.088c-12.8 4.096-25.6 9.216-38.912 12.8-14.336 2.56-27.648-5.632-30.72-19.456zM412.16 470.016c-14.848 0-27.136-12.288-27.136-27.136 1.024-15.872 14.336-27.648 30.208-27.136 14.848 0.512 26.624 12.288 27.136 27.136 0 15.872-12.8 28.672-28.672 28.672l-1.536-1.536zM370.176 367.616c-14.848 0-27.136-11.776-27.648-26.624v-1.024c1.024-15.872 15.36-27.648 30.72-26.624 6.656 0 13.312 3.072 18.432 7.68 5.12 5.12 7.68 11.776 7.68 18.944v1.024c-0.512 15.872-13.312 27.648-29.184 26.624zM456.704 337.408c-0.512 0-0.512 0-1.024 0.512-4.608 1.024-8.704 0.512-13.312 0-12.288-1.536-22.016-11.264-23.552-23.552-1.024-12.288 6.656-24.064 18.432-28.16l99.328-32.768c6.656 17.92 16.384 34.304 28.16 48.64l-108.032 35.328zM456.192 583.168c-7.168 0-13.824-2.56-18.944-7.68-5.12-4.608-8.192-11.776-8.192-18.944 0.512-15.872 13.824-27.648 29.184-27.136v0.512h2.56c13.824 0.512 25.088 11.776 24.576 25.6v2.048c-0.512 14.848-13.824 26.624-29.184 25.6zM730.112 331.264c-78.848 0-142.848-64-142.848-142.848s64-142.848 142.848-142.848 142.848 64 142.848 142.848-63.488 142.848-142.848 142.848z m78.336-182.784v-23.552c0-25.088-24.064-45.568-53.248-45.568s-53.248 20.48-53.248 45.568V148.48c-32.768 0-59.904 26.624-59.904 59.904V273.408h35.328c6.144 0 11.264-5.12 11.264-11.264 0-6.144-5.12-11.264-11.264-11.264h-12.288v-42.496c0-20.48 16.384-36.864 36.864-36.864s36.864 16.384 36.864 36.864V250.88h-12.288c-6.144 0-11.264 5.12-11.264 11.264 0 6.144 5.12 11.264 11.264 11.264h35.328V208.384c0-25.6-16.384-47.616-38.912-55.808v-27.136c0-15.36 14.848-28.16 32.768-28.16 17.92 0 32.768 12.8 32.768 28.16v29.696c-5.12 4.608-8.192 10.752-8.192 17.92 0 13.312 10.752 24.576 24.576 24.576s24.576-10.752 24.576-24.576c-0.512-12.8-9.728-23.04-20.992-24.576z"  horiz-adv-x="1024" />
      
      <glyph glyph-name="peizhongjihua" unicode="&#58992;" d="M746.496 159.232v68.608c-13.824 15.872-31.744 6.144-31.744-7.68v-79.36l68.608-39.936c7.68-4.096 17.408-1.536 21.504 6.144 4.096 7.68 1.536 16.896-5.632 21.504l-52.736 30.72z m45.056-110.08c-116.224-55.808-229.888 57.856-174.08 174.08 10.752 22.016 28.672 39.936 50.688 50.688 116.224 55.808 229.888-57.856 174.08-174.08-10.752-22.016-28.672-39.936-50.688-50.688zM346.112 346.624l-74.24-62.464c-4.096-3.584-6.144-8.704-6.144-13.824l-7.168-7.168c-30.208-30.208-38.912-48.64-41.472-55.296-9.728-8.192-19.456-25.088-26.112-44.544-9.728-27.648-0.512-53.76 30.72-56.32 30.72-2.56 46.592 21.504 39.936 50.176-4.608 20.992-10.752 40.96-19.968 50.176 5.12 19.456 24.064 36.352 36.352 46.08 5.632-2.048 12.288-1.024 16.896 3.072l74.24 62.464c7.68 6.144 8.192 17.408 2.048 25.088-6.144 8.192-17.408 9.216-25.088 2.56z m424.448 333.312c-75.264 89.6-208.896 101.376-298.496 26.112C414.72 657.92 389.12 586.24 397.824 517.12l4.608 3.584v-2.048c-3.584-1.536-7.168-4.096-10.24-6.656-22.528-18.944-25.088-52.224-6.656-74.752l5.632-6.656-148.992-124.928c-15.36-12.8-21.504-32.768-17.92-51.2-22.016-6.656-46.08-43.52-61.952-88.064-17.408-49.664-1.024-95.232 54.784-100.352 54.784-4.608 82.944 37.888 71.168 89.088-4.608 20.48-10.24 40.448-16.384 56.832 13.312-1.024 27.136 3.072 38.4 12.288l148.992 124.928 5.632-6.656c18.944-22.528 52.224-25.6 74.752-6.656 4.608 4.096 8.192 8.704 11.264 13.312l3.584-1.024-9.216-7.68c66.56-20.48 141.312-8.192 198.656 39.936 90.112 75.776 101.376 209.92 26.624 299.52z m-471.552-441.856c-10.24-8.192-23.552-10.24-34.816-6.144l-13.824-11.776c10.24-13.824 17.408-37.888 23.552-63.488 8.704-38.912-12.288-71.168-54.272-67.584-42.496 3.584-54.784 38.4-41.472 76.288 11.776 32.768 29.184 60.416 45.568 66.56l-6.144 7.168 24.064 19.968c-2.048 11.776 2.048 24.576 12.288 33.28l148.992 124.928 45.568-54.272-149.504-124.928z m417.28 394.24c-4.608-4.096-11.776-3.584-16.384 0.512l-0.512-0.512c-46.08 47.616-121.344 52.224-173.568 10.24-0.512-1.024-1.024-2.048-2.048-2.56-5.12-4.608-13.312-3.584-17.408 1.536-4.608 5.12-3.584 13.312 1.536 17.408 0 0 0.512 0.512 1.024 0.512l-1.024 1.024c61.952 52.224 152.576 47.104 208.384-9.216 0.512-0.512 1.024-0.512 1.536-1.024v-0.512l0.512-0.512c3.584-6.144 3.072-12.8-2.048-16.896z"  horiz-adv-x="1024" />
      
      <glyph glyph-name="mianyijilu" unicode="&#58993;" d="M717.312 327.168c-78.848 0-142.848-64-143.36-142.848 0-78.848 64-142.848 142.848-142.848 78.848 0 142.848 64 142.848 142.848 0.512 78.848-63.488 142.848-142.336 142.848z m104.448-99.84c-1.536 0-3.584 0.512-4.608 2.048l-19.968 21.504-14.848-16.384 9.216-10.24c7.68-8.192 7.68-22.016 0-30.72L703.488 97.28c-6.656-7.68-17.92-8.192-25.6-2.048l-4.096-4.608c-7.168-7.68-17.92-9.216-26.624-4.096l-6.656-7.68c-2.56-2.56-6.656-2.56-9.216 0s-2.56 7.168 0 10.24l6.656 7.68c-4.608 9.728-3.072 21.504 4.096 29.184l4.096 4.608c-6.144 8.704-5.632 20.992 1.536 28.672l88.064 96.256c7.68 8.192 19.968 8.192 27.648 0l9.728-10.752 14.848 16.384-19.968 22.016c-2.56 2.56-2.56 7.168 0 10.24 2.56 2.56 6.656 2.56 9.216 0l49.152-53.76c1.024-1.536 2.048-3.072 2.048-5.12 0-4.096-3.072-7.168-6.656-7.168zM560.128 98.816c-2.56-0.512-5.632-1.536-8.192-2.048-27.648-4.096-55.296 9.728-68.096 34.816-10.24 21.504-14.848 45.568-12.8 69.632 0.512 4.608-2.56 8.704-6.656 9.728-99.328 39.936-198.144 80.384-297.472 120.32-4.096 1.536-8.192-1.024-8.704-5.12-1.536-10.24-3.584-20.48-3.584-30.208v-0.512c-3.584-35.84 7.168-71.168 29.696-99.328 15.36-16.896 34.304-30.208 55.808-38.4 74.24-33.28 147.968-66.56 222.208-99.84 25.6-12.8 54.272-18.432 82.432-16.384 17.92 0.512 35.84 4.608 52.224 11.264-14.848 12.8-27.136 28.672-36.864 46.08zM767.488 357.376c32.256 89.6 61.952 180.224 90.112 270.848 1.536 3.072 2.048 6.144 2.048 9.216 1.024 15.36-10.752 29.184-26.112 30.208l-394.24 78.336h-0.512c-1.024 0.512-2.048 0.512-3.584 1.024-15.36 3.072-30.72-6.656-34.304-22.016L306.688 465.408l-34.304-93.696c-2.56-4.608-3.584-10.24-2.56-15.872 2.048-14.848 15.36-25.6 30.72-24.064 11.776 2.048 20.992 10.752 24.064 22.528L430.08 643.584l14.336 39.424c1.024 3.072 4.608 5.12 7.68 4.096l345.6-69.12-3.584 0.512c-3.584-11.776-7.168-23.04-11.264-34.304-24.064-73.728-49.152-147.456-74.752-220.672h9.216c17.408 1.024 34.304-1.536 50.176-6.144zM693.248 495.104s0-0.512 0 0v-1.024 1.024zM543.744 500.736l71.68-19.456c16.384-4.608 32.256-9.216 49.152-12.8h3.584c13.824 0.512 25.088 11.776 25.088 25.6-0.512 12.288-8.704 22.528-19.968 25.6l-31.232 8.704-81.408 21.504c-7.68 3.584-16.384 3.584-24.064 0-0.512 0-0.512-0.512-1.024-0.512-8.704-5.12-13.824-15.36-12.288-25.088 0-11.264 8.704-20.992 20.48-23.552zM476.672 423.424v-1.024c-3.584-14.336 5.632-29.184 19.968-32.256l111.104-37.888c0.512 0 1.024 0 1.024-0.512 3.584-0.512 7.168-0.512 10.752 0 7.168 0 13.824 2.56 18.944 7.68s7.68 11.776 7.168 18.944l-2.048 0.512c0 12.8-8.704 23.552-20.992 26.112L546.304 430.08c-12.8 4.096-25.6 9.216-38.912 12.8-13.824 2.56-27.136-6.144-30.72-19.456zM424.96 465.92c-14.848 0-27.136-12.288-27.136-27.136 1.024-15.872 14.336-27.648 30.208-27.136 14.848 0.512 26.624 12.288 27.136 27.136 0 15.872-12.8 28.672-28.672 28.672l-1.536-1.536zM382.976 364.032c-14.848 0-27.136-11.776-27.648-26.624v-1.024c1.024-15.872 15.36-27.648 30.72-26.624 6.656 0 13.312 3.072 18.432 7.68 5.12 5.12 7.68 11.776 7.68 18.944v1.024c-0.512 15.36-13.312 27.136-29.184 26.624zM470.016 333.824c-0.512 0-0.512 0-1.024 0.512-4.608 1.024-8.704 0.512-13.312 0-12.288-1.536-22.016-11.264-23.552-23.552-1.024-12.288 6.656-24.064 18.432-28.16l99.328-32.768c6.656 17.92 16.384 34.304 28.16 48.64l-108.032 35.328zM468.992 579.072c-7.168 0-13.824-2.56-18.944-7.68-5.12-4.608-8.192-11.776-8.192-18.944 0.512-15.872 13.824-27.648 29.184-27.136v0.512h2.56c13.824 0.512 25.088 11.776 24.576 25.6v2.048c-0.512 14.848-13.824 26.624-29.184 25.6z"  horiz-adv-x="1024" />
      
      <glyph glyph-name="baojianjilu" unicode="&#58994;" d="M551.936 94.208c-2.56-0.512-5.632-1.536-8.192-2.048-27.648-4.096-55.296 9.728-68.096 34.816-10.24 21.504-14.848 45.568-12.8 69.632 0.512 4.608-2.56 8.704-6.656 9.728-99.328 39.936-198.144 80.384-297.472 120.32-4.096 1.536-8.192-1.024-8.704-5.12-1.536-10.24-3.584-20.48-3.584-30.208v-0.512c-3.584-35.84 7.168-71.168 29.696-99.328 15.36-16.896 34.304-30.208 55.808-38.4 74.24-33.28 147.968-66.56 222.208-99.84 25.6-12.8 54.272-18.432 82.432-16.384 17.92 0.512 35.84 4.608 52.224 11.264-14.848 13.312-27.136 28.672-36.864 46.08zM759.808 352.768c32.256 89.6 61.952 180.224 90.112 270.848 1.536 3.072 2.048 6.144 2.048 9.216 1.024 15.36-10.752 29.184-26.112 30.208l-394.24 78.336h-0.512c-1.024 0.512-2.048 0.512-3.584 1.024-15.36 3.072-30.72-6.656-34.304-22.016L298.496 460.8l-34.304-93.696c-2.56-4.608-3.584-10.24-2.56-15.872 2.048-14.848 15.36-25.6 30.72-24.064 11.776 2.048 20.992 10.752 24.064 22.528l105.984 288.768 14.336 39.424c1.024 3.072 4.608 5.12 7.68 4.096L789.504 614.4l-3.584 0.512c-3.584-11.776-7.168-23.04-11.264-34.304-24.064-73.728-49.152-147.456-74.752-220.672h9.216c17.408 0 34.304-2.56 50.688-7.168zM685.568 490.496v-1.024 1.024zM535.552 496.64l71.68-19.456c16.384-4.608 32.256-9.216 49.152-12.8h3.584c13.824 0.512 25.088 11.776 25.088 25.6-0.512 12.288-8.704 22.528-19.968 25.6l-31.232 8.704-81.408 21.504c-7.68 3.584-16.384 3.584-24.064 0-0.512 0-0.512-0.512-1.024-0.512-8.704-5.12-13.824-15.36-12.288-25.088 0.512-11.776 9.216-21.504 20.48-23.552zM468.992 418.816v-1.024c-3.584-14.336 5.632-29.184 19.968-32.256l111.104-37.888c0.512 0 1.024 0 1.024-0.512 3.584-0.512 7.168-0.512 10.752 0 7.168 0 13.824 2.56 18.944 7.68s7.68 11.776 7.168 18.944l-2.048 0.512c0 12.8-8.704 23.552-20.992 26.112l-76.288 25.088c-12.8 4.096-25.6 9.216-38.912 12.8-14.336 2.56-27.648-6.144-30.72-19.456zM417.28 461.312c-14.848 0-27.136-12.288-27.136-27.136 1.024-15.872 14.336-27.648 30.208-27.136 14.848 0.512 26.624 12.288 27.136 27.136 0 15.872-12.8 28.672-28.672 28.672l-1.536-1.536zM374.784 359.424c-14.848 0-27.136-11.776-27.648-26.624v-1.024c1.024-15.872 15.36-27.648 30.72-26.624 6.656 0 13.312 3.072 18.432 7.68 5.12 5.12 7.68 11.776 7.68 18.944v1.024c0 15.36-13.312 27.136-29.184 26.624zM461.824 329.216c-0.512 0-0.512 0-1.024 0.512-4.608 1.024-8.704 0.512-13.312 0-12.288-1.536-22.016-11.264-23.552-23.552-1.024-12.288 6.656-24.064 18.432-28.16l99.328-32.768c6.656 17.92 16.384 34.304 28.16 48.64l-108.032 35.328zM461.312 574.464c-7.168 0-13.824-2.56-18.944-7.68-5.12-4.608-8.192-11.776-8.192-18.944 0.512-15.872 13.824-27.648 29.184-27.136v0.512h2.56c13.824 0.512 25.088 11.776 24.576 25.6v2.048c-0.512 15.36-13.824 26.624-29.184 25.6zM772.608 180.224h-23.04v23.04c0 1.536-0.512 3.072-1.536 4.096-1.024 1.024-2.56 1.536-4.096 1.536H727.04c-1.536 0-3.072-0.512-4.096-1.536-1.024-1.024-1.536-2.56-1.536-4.096v-23.04h-23.552c-1.536 0-3.072-0.512-4.096-1.536-1.024-1.024-1.536-2.56-1.536-4.096v-16.384c0-1.536 0.512-3.072 1.536-4.096 1.024-1.024 2.56-1.536 4.096-1.536h23.552v-23.04c0-1.536 0.512-3.072 1.536-4.096 1.024-1.024 2.56-1.536 4.096-1.536h15.872c1.536 0 3.072 0.512 4.608 2.048 1.024 1.024 2.048 2.56 2.048 4.608v22.528h23.552c1.536 0 3.072 0.512 4.096 1.536 1.024 1.024 1.536 2.56 1.536 4.096v15.36c0 1.536-0.512 3.072-1.536 4.096-1.536 1.536-3.072 2.048-4.608 2.048zM735.232 322.56c-78.848 0-142.848-64-142.848-142.848 0-78.848 64-142.848 142.848-142.848 78.848 0 142.848 64 142.848 142.848 0 78.848-64 142.848-142.848 142.848z m-71.68-53.76c0 2.56 1.024 4.608 2.56 6.144 2.048 1.536 4.096 2.048 7.168 2.048h122.88c3.072 0 5.632-0.512 7.68-2.048 2.048-1.536 3.072-3.584 3.072-6.656v-7.168c0-3.072-1.024-5.12-3.072-6.656-2.048-1.536-4.608-2.048-7.68-2.048h-123.392c-3.072 0-5.12 0.512-7.168 2.048-1.536 1.536-2.56 3.584-2.56 6.144v8.192z m149.504-175.616c0-6.144-5.12-11.264-11.264-11.264h-133.12c-6.144 0-11.264 5.12-11.264 11.264v119.296c0 16.384 13.312 29.184 29.696 29.184h96.768c16.384 0 29.696-13.312 29.696-29.184v-119.296z"  horiz-adv-x="1024" />
      
      <glyph glyph-name="duannaijihua" unicode="&#58995;" d="M732.16 159.232v68.608c-13.824 15.872-31.744 6.144-31.744-7.68v-79.36l68.608-39.936c7.68-4.096 17.408-1.536 21.504 6.144 4.096 7.68 1.536 16.896-5.632 21.504l-52.736 30.72z m45.056-110.592c-116.224-55.808-229.888 57.856-174.08 174.08 10.752 22.016 28.672 39.936 50.688 50.688 116.224 55.808 229.888-57.856 174.08-174.08-10.752-22.016-28.672-39.936-50.688-50.688zM516.608 182.784l140.288 259.072c14.336-2.56 29.184 2.56 39.424 14.336l15.872 19.456c27.136 32.768 23.552 81.408-7.168 110.08-8.704 21.504 0 39.936 5.632 48.64 11.264 1.536 22.528 7.168 30.208 16.896 16.896 20.48 13.824 50.688-6.656 67.584l-17.408 14.336c-20.48 16.896-50.688 13.824-67.584-6.656-7.68-9.728-11.264-21.504-10.752-32.768-7.68-7.68-25.6-20.992-50.176-14.336-33.28 16.896-74.752 9.216-99.328-20.48l-15.872-19.456c-9.728-11.776-11.776-27.648-6.656-41.472L245.76 398.336c-5.12-3.584-10.24-7.68-14.336-12.8l-23.04-28.16c-47.616-57.856-38.912-143.872 18.944-191.488l62.976-51.712c57.856-47.616 143.872-38.912 191.488 18.944l23.04 28.16c5.632 6.656 9.216 13.824 11.776 21.504z m152.064 309.76c-39.936 107.008-146.944 123.904-151.04 124.416l4.096 27.648c5.12-0.512 127.488-19.456 173.568-142.336l-26.624-9.728z"  horiz-adv-x="1024" />
      
      <glyph glyph-name="duannaitishi" unicode="&#58996;" d="M488.96 184.832L629.76 443.904c14.336-2.56 29.184 2.56 39.424 14.336l15.872 19.456c27.136 32.768 23.552 81.408-7.168 110.08-8.704 21.504 0 39.936 5.632 48.64 11.264 1.536 22.528 7.168 30.208 16.896 16.896 20.48 13.824 50.688-6.656 67.584l-17.408 14.336c-20.48 16.896-50.688 13.824-67.584-6.656-7.68-9.728-11.264-21.504-10.752-32.768-7.68-7.68-25.6-20.992-50.176-14.336-33.28 16.896-74.752 9.216-99.328-20.48l-15.872-19.456c-9.728-11.776-11.776-27.648-6.656-41.472l-220.672-199.68c-5.12-3.584-10.24-7.68-14.336-12.8l-23.04-28.16c-47.616-57.856-38.912-143.872 18.944-191.488l62.976-51.712c57.856-47.616 143.872-38.912 191.488 18.944l23.04 28.16c5.12 6.144 9.216 13.824 11.264 21.504z m152.064 309.76c-39.936 107.008-146.944 123.904-151.04 124.416l4.096 27.648c5.12-0.512 127.488-19.456 173.568-142.336l-26.624-9.728zM857.6 74.752L696.32 290.816c-9.728 9.728-25.6 9.728-35.328 0l-161.28-216.064c-11.776-11.776-3.584-32.256 13.312-32.256H844.8c16.384 0.512 25.088 20.48 12.8 32.256z m-163.84 160.256l-5.12-110.08h-16.896l-5.12 110.08h27.136z m-2.048-149.504c-3.072-3.072-7.168-4.096-11.264-4.096s-8.192 1.536-10.752 4.608c-3.072 3.072-4.608 6.656-4.608 10.752 0 4.608 1.536 8.192 4.608 10.752 3.072 3.072 6.656 4.096 10.752 4.096 4.608 0 8.704-1.536 11.264-4.096 3.072-2.56 4.608-6.144 4.608-10.752 0-4.096-1.536-8.192-4.608-11.264z"  horiz-adv-x="1024" />
      
      <glyph glyph-name="muzhuqichu1" unicode="&#58977;" d="M65.024 298.496v25.6c1.024 5.632 1.536 10.752 2.56 16.384 2.048 11.776 4.096 24.064 7.168 35.328 3.072 10.24 9.728 17.92 22.528 16.896 6.144-0.512 10.24 3.072 12.8 8.192 2.56 5.632 4.096 11.776 5.632 17.92 1.536 7.168 1.536 14.848 3.072 22.016 10.752 57.856 37.376 107.52 77.312 150.528 6.656 7.168 13.312 13.312 20.48 20.48-1.536 1.536-3.072 2.56-4.608 4.096-14.336 13.312-28.672 27.648-39.424 44.544-10.24 15.36-7.68 35.328 5.632 47.616 7.168 6.656 14.848 11.264 24.576 12.288h19.456c8.192-1.536 16.896-2.56 25.088-4.096 33.28-6.656 64-18.944 95.232-31.232 8.704-3.584 16.896-9.728 25.6-10.24s17.408 4.608 26.624 6.656c63.488 14.336 126.976 17.92 191.488 7.168 74.752-11.776 139.264-43.52 193.024-96.768 41.984-41.472 70.144-90.112 81.92-147.968 0.512-2.048 2.048-5.12 3.072-5.12 10.24-1.024 20.48-1.024 28.16 8.704-2.048 1.536-4.096 3.072-5.632 4.608-11.776 9.216-20.992 19.968-24.576 34.816-4.096 15.872 3.072 34.304 16.896 41.984 13.312 7.68 30.208 5.632 42.496-5.632 10.752-10.24 15.36-23.04 14.336-37.888-0.512-8.704-3.072-16.896-5.12-26.624 4.608 1.024 9.728 2.048 14.336 3.072 7.68 2.048 14.336-1.536 16.384-8.192 2.048-6.656-1.536-12.8-8.704-15.36-9.216-3.584-18.944-4.608-29.184-2.56-4.096 1.024-7.168 0-9.728-3.584-7.168-9.216-16.896-15.36-28.672-17.92-6.144-1.024-12.288-1.024-17.92-1.536 0-18.432 0.512-36.864 0-55.296-1.024-18.432-3.072-36.352-4.608-54.784h-2.048c-0.512 1.024-1.536 2.56-2.048 3.584-49.152 98.816-154.112 150.016-262.144 126.976-102.912-22.016-181.248-117.248-182.272-222.72-0.512-54.784 15.36-104.448 48.64-147.968 4.096-5.12 2.56-9.728 0-14.336-2.048-3.584-6.144-8.192-9.216-8.192-23.04-0.512-46.592 0-69.632 1.024-3.584 0-8.192 2.56-9.728 5.12-3.072 5.12-4.608 11.264-5.632 17.408s0 12.8-0.512 18.944c0 2.56-1.024 6.144-3.072 6.656-4.608 2.56-9.728 3.584-15.872 5.632-0.512-4.608-0.512-8.192-1.024-11.264-1.024-9.728-3.584-13.312-13.312-15.872-25.6-5.632-50.688-3.584-75.776 2.56-11.264 2.56-16.896 10.24-17.92 22.016-1.536 15.36 1.024 29.696 8.192 43.52 5.12 9.728 4.608 9.728-4.096 16.384-24.576 18.432-46.592 39.424-65.536 63.488-10.752 13.312-25.088 22.016-41.984 25.088-10.752 2.048-21.504 3.072-32.256 5.12-19.968 3.584-33.28 13.824-36.352 34.816-1.536 6.144-2.56 11.776-4.096 17.92z m174.592 181.76c14.336 0 24.064 9.728 24.064 24.576 0 14.336-9.728 24.576-23.04 24.576-14.336 0-24.576-10.24-24.576-24.576-0.512-14.336 9.728-24.576 23.552-24.576z m665.6-11.776c3.584 7.68 6.656 14.848 4.608 22.528-1.024 5.12-3.584 10.24-6.656 13.824-5.632 6.144-12.8 4.096-15.36-3.072-1.024-3.072-1.536-6.656-1.024-10.24 2.56-9.728 9.728-16.384 18.432-23.04zM646.656 11.776c-108.544 0-197.12 88.576-197.12 197.12s88.576 197.12 197.12 197.12 197.12-88.576 197.12-197.12-88.576-197.12-197.12-197.12z m0 370.688c-95.744 0-173.568-77.824-173.568-173.568s77.824-173.568 173.568-173.568 173.568 77.824 173.568 173.568-77.824 173.568-173.568 173.568zM548.864 130.048c5.632 30.208 10.24 58.88 13.312 86.528h-31.232V240.64h33.792c2.56 27.648 4.096 54.784 4.608 81.92h172.032c-0.512-30.208-1.536-57.344-2.56-81.92h31.744v-24.576h-32.768c-0.512-17.92-1.536-38.912-3.072-62.976h28.672v-23.552h-30.208l-1.536-9.728c-3.072-10.752-8.704-18.944-16.384-24.064-8.704-5.12-20.48-7.68-35.328-7.68h-26.112l-8.192 24.064c12.8-1.024 23.04-1.536 30.72-1.536 6.656 0 12.8 1.024 18.432 2.56 5.12 2.048 9.216 6.656 11.776 14.336l0.512 2.048h-158.208z m161.792 23.552l3.072 62.976h-125.44c-3.072-23.552-5.632-44.544-9.216-62.976h131.584z m3.584 87.04l2.048 57.856H593.92c-1.024-25.088-2.56-44.032-3.584-57.856h123.904z m-81.92-28.672c16.384-11.776 31.232-24.064 44.544-37.376l-15.872-17.408c-15.36 15.36-30.208 27.648-44.032 37.888l15.36 16.896z m7.168 81.92c15.36-9.728 29.696-21.504 43.008-35.328l-15.36-17.408c-13.824 14.336-28.672 26.624-44.544 37.376l16.896 15.36z"  horiz-adv-x="1024" />
      
      <glyph glyph-name="fenmianjilu" unicode="&#58957;" d="M259.584 626.688h59.392l15.36 6.144s-63.488 55.808-122.88 44.032c0 0-13.312-39.936 48.128-50.176z m0 0M957.44 625.152v0.512c-1.024 7.68-9.216 9.728-10.24 10.24-19.968 3.584-28.16-9.216-30.72-13.312-0.512-1.024-1.536-1.536-2.56-1.536h-18.432c-0.512 0-1.536 0-2.048-0.512-15.872-13.824-19.456-26.112-19.968-29.696 0-0.512 0-0.512-0.512-1.024l-1.024 1.024C834.048 664.064 586.752 655.36 586.752 655.36 462.848 666.112 291.84 616.448 291.84 616.448c-145.92 34.304-192.512 4.096-192.512 4.096 34.304-62.976 105.472-128 105.472-128l-53.248 32.768-65.024-55.296h-22.528v-63.488l61.952-1.536-27.648-23.04 57.344-10.24c30.72-61.952 71.168-62.976 71.168-62.976l101.376-41.472 61.952-139.776L363.52 81.92c-27.648-35.328 63.488-11.264 63.488-11.264l-1.536 44.544h16.896l-13.824 128h28.16c25.6-8.704 51.2-15.36 75.264-19.968h-48.64l35.328-79.36-0.512-19.968-18.432-28.16c-19.968-27.136 52.736-12.8 52.736-12.8-8.704 40.96 6.144 43.008 6.144 43.008v26.112l-6.656 67.584c77.312-12.288 138.24-6.144 138.24-6.144 28.16-27.648 87.552-18.944 87.552-18.944l-14.848-82.432-30.72-27.648c-44.544-45.568 56.832-29.184 56.832-29.184l8.704 31.744h16.384l41.472 126.976c16.384 25.6-6.144 34.304-6.144 34.304l1.024 27.648c97.28 112.64 67.584 223.232 41.984 278.528-8.704 32.256-0.512 53.76 2.048 59.392 0.512 1.024 1.536 1.536 2.56 1.536h11.776c1.536 0 3.072-1.536 2.56-3.072l-1.536-6.656c0-0.512 0-0.512-0.512-1.024-13.312-17.92 4.608-22.528 8.704-23.04l2.048 0.512c23.552 12.8 8.192 29.184 3.072 33.792-1.024 0.512-1.024 2.048-0.512 3.072 3.072 7.68 10.24 10.24 14.848 11.776 2.048 0.512 4.096-1.536 3.072-3.584 0-0.512 0-0.512-0.512-1.024-12.288-15.36 3.584-18.944 7.168-19.456h1.536c13.312 4.608 9.216 16.384 8.704 18.432z m-214.528-272.896c-7.168-95.744-72.192-86.528-161.28-86.528s-161.28 38.912-161.28 86.528c0 47.616 52.736 112.64 141.312 123.904 121.856 15.872 184.832-76.288 181.248-123.904z m0 0M442.368 394.24h30.72s17.408 28.16 52.736 26.112h23.04l25.088 18.432s28.672-26.112-7.68-57.856c0 0 16.384-7.68 30.72 33.28 0 0 104.96 15.872 100.864-45.568 0 0 8.704-34.816-12.288-46.592 0 0 32.768-16.384 17.92-31.744 0 0-47.616-12.8-74.752 43.008 0 0-11.776-18.944 23.04-40.448 0 0-39.424-4.608-71.68 11.264 0 0 11.776 6.144 4.608 19.456 0 0-9.728-8.704-9.728-19.968 0 0-13.312-30.208-34.304-19.968 0 0-3.584 10.24 14.336 19.968l1.024 24.064-6.656 0.512v-12.8s-46.08 14.336-65.024 41.984c0 0 10.24 6.144 34.304-2.048 0 0 3.584 11.264-62.464 13.824-1.024 0-16.384 9.216-13.824 25.088z m0 0"  horiz-adv-x="1024" />
      
      <glyph glyph-name="gongzhusiwang" unicode="&#58964;" d="M512.512-34.816c-227.84 0-413.184 185.344-413.184 413.184s185.344 413.184 413.184 413.184 413.184-185.344 413.184-413.184c0.512-227.328-185.344-413.184-413.184-413.184z m0 787.456c-205.824 0-373.76-167.936-373.76-373.76s167.936-373.76 373.76-373.76 373.76 167.936 373.76 373.76-167.424 373.76-373.76 373.76zM204.47744 132.76672L758.03136 686.32064l34.02752-34.03264L238.51008 98.73408zM787.456 446.976c14.848-12.8 18.944-37.888 18.944-55.296v-35.84l-11.264-9.728v35.84c-0.512 13.824-4.096 27.136-10.24 39.424 1.024-7.68 1.536-16.384 1.536-24.576 0-20.992-15.872-63.488-17.92-69.12l32.768-41.472-7.68-121.344v-1.536h-40.448v6.144l9.216 57.344-3.584 11.776-28.672 17.408-31.744-93.184h-40.448V168.96l27.648 57.856-0.512 11.776-41.984 29.696-14.848 47.104h-33.792l-88.576-15.872v-14.848l-35.328-120.32v-1.024h-40.96v6.144l20.48 57.856v11.264l-9.728 30.72-52.736-107.008h-40.448V168.96l32.256 57.856 1.536 11.776-6.656 46.592-21.504 47.616c-5.632-3.072-11.776-4.608-17.92-4.608h-15.872c-20.48 0.512-40.448 6.144-57.344 17.408l-20.992 8.704-44.544-12.288-30.72 74.752v1.024l20.992 7.68 4.608-4.096 15.872 8.704c-1.536 11.776-1.024 23.552 0.512 35.328l6.656 12.288 1.024-1.536c2.048-11.264 6.144-22.528 10.752-33.28l32.256 19.968 26.112 31.232 7.68 15.36-25.6 67.072-0.512 1.536h14.336l20.48-11.264-3.584 9.728-0.512 1.024h14.848l16.384-9.728h137.728l121.344-19.456h59.392c54.784 0 101.376-29.696 124.928-78.336 3.584-8.704 9.216-16.896 16.384-23.04z"  horiz-adv-x="1024" />
      
      <glyph glyph-name="muzhusiwang" unicode="&#58967;" d="M512-37.888c-228.352 0-413.696 185.856-413.696 413.696S283.648 790.016 512 790.016s413.696-185.856 413.696-413.696c0.512-227.84-185.344-414.208-413.696-414.208z m0 788.48c-205.824 0-374.272-167.936-374.272-374.272s167.936-374.272 374.272-374.272 374.272 167.936 374.272 374.272-167.424 374.272-374.272 374.272zM203.69408 129.9968L757.9648 684.2624 792.00256 650.24 237.7216 95.96416zM538.624 174.592l-6.656 71.68c-16.896 0-34.816 0.512-51.712 2.048 0 0 24.576-54.272 25.6-66.56 1.024-11.264-23.04-35.328-10.752-38.4 17.92-5.12 38.4 2.048 39.424 3.072-1.024 13.824-7.68 37.888 4.096 28.16zM361.984 536.064c1.536 0.512 4.096 1.024 5.632 1.536 3.584 0.512 6.656 1.024 9.728 1.536-14.336 9.728-26.624 21.504-57.856 30.72-12.288 3.584-24.576 5.12-35.84 5.632 3.072-11.264 4.608-20.48 6.656-29.184 23.04-6.656 34.816-16.896 71.68-10.24z m457.728 3.584c1.024 2.048 2.048 4.608 3.584 6.144 0.512 1.024-8.704 0.512-10.24-2.048 0-0.512-0.512-0.512-0.512-1.024-8.704 1.536-15.872-2.048-20.992-9.728-4.608 1.024-9.728 0.512-13.824-0.512-9.728-3.072-13.312-12.288-13.312-22.528-1.536 2.048-4.096 4.608-5.632 6.144-9.728 10.752-21.504 18.944-34.304 22.528-113.664 27.648-230.912 27.648-345.088 0-2.048-0.512-4.096-1.024-6.144-2.048-59.392-15.36-62.464 11.264-126.464 5.12-14.336-1.024-27.136-4.096-39.936-8.192 14.848-24.576 21.504-36.864 40.448-57.344 12.288-13.824 27.136-25.088 39.936-36.352-12.288 9.216-27.648 16.384-42.496 26.112-17.408-17.92-34.304-35.328-51.712-41.984-1.024 1.536-2.048 3.072-4.608 3.072-4.096 0-6.144-3.584-6.144-7.168v-43.008h45.056c-6.656-6.656-14.336-10.752-20.992-14.336 12.288-4.096 25.6-7.168 39.936-8.704 1.024 0 2.048-0.512 3.584-0.512 8.192-20.48 22.016-38.4 42.496-43.52 16.384-4.096 47.104-17.92 73.728-28.16 2.048-1.024 4.608-2.048 6.656-3.584 15.36-29.184 39.936-77.312 41.472-97.28 1.024-10.24-32.256-45.568-15.872-49.152 15.36-3.584 45.568 6.656 46.08 6.656-1.024 16.384-6.144 40.448 9.728 29.184L445.44 262.144c57.856-8.704 116.224-10.24 174.08-4.608 7.168-7.168 15.872-13.824 26.112-19.456 16.384-8.704 32.768-11.776 46.592-10.752-1.024-28.672-11.264-58.368-11.264-58.368-1.536-1.024-40.96-31.744-27.136-41.472 12.288-8.704 46.08-3.072 47.104-3.072 5.12 11.776 2.048 29.184 17.408 20.992l36.352 106.496c0.512 12.288-14.848 3.072-9.728 31.744 19.456 13.824 34.304 37.888 37.888 62.976 5.632 17.92 9.728 40.448 9.728 63.488 0 27.136-4.608 52.224-12.288 72.192 0 0.512 0.512 0.512 0 1.024-2.048 7.168-3.584 15.36-4.096 23.04-0.512 5.632-0.512 11.264 1.024 16.896 1.536 6.656 6.656 6.144 11.264 3.072-3.584-9.216-5.632-25.088 5.632-24.064 9.216 1.024 15.36 6.656 12.288 17.408-1.024 4.608-4.096 7.168-7.168 9.728 1.024 3.584 3.072 6.144 5.12 9.216 1.024 1.024 3.584 0 5.632-3.072-3.072-8.192-2.048-16.384 8.192-14.336 8.704 3.072 8.704 13.312 1.536 18.432z"  horiz-adv-x="1024" />
      
      </font>
</defs>
</svg>
