<svg width="26" height="26" viewBox="0 0 26 26" fill="none" xmlns="http://www.w3.org/2000/svg">
<path d="M13 0C5.85 0 0 5.85 0 13C0 20.15 5.85 26 13 26C20.15 26 26 20.15 26 13C26 5.85 20.15 0 13 0ZM13 24.05C6.89 24.05 1.95 19.11 1.95 13C1.95 6.89 6.89 1.95 13 1.95C19.11 1.95 24.05 6.89 24.05 13C24.05 19.11 19.11 24.05 13 24.05ZM19.76 9.36C19.76 9.62 19.63 9.88 19.5 10.01L12.22 17.29C12.09 17.42 11.83 17.55 11.57 17.55C11.31 17.55 11.05 17.42 10.92 17.29L6.76 13.13C6.37 13 6.24 12.74 6.24 12.48C6.24 11.96 6.63 11.44 7.28 11.44C7.54 11.57 7.8 11.7 7.93 11.83L11.44 15.34L18.07 8.71C18.2 8.58 18.46 8.45 18.72 8.45C19.24 8.32 19.76 8.84 19.76 9.36Z" fill="#36CE5A"/>
</svg>
