<?xml version="1.0" standalone="no"?><!DOCTYPE svg PUBLIC "-//W3C//DTD SVG 1.1//EN" "http://www.w3.org/Graphics/SVG/1.1/DTD/svg11.dtd"><svg t="1591679122191" class="icon" viewBox="0 0 1024 1024" version="1.1" xmlns="http://www.w3.org/2000/svg" p-id="2873" xmlns:xlink="http://www.w3.org/1999/xlink" width="800" height="800"><defs><style type="text/css"></style></defs><path d="M722.110165 460.575518l-61.82291-3.663962c2.993096-51.089049-8.463236-90.515345-34.059366-117.298393-40.613214-42.419392-105.687245-41.903341-106.358111-41.903341l-1.393338-61.92612c3.767172-0.154815 92.115104-1.496548 151.97702 60.429572 38.394194 39.787532 55.785113 95.056594 51.656705 164.362244z" fill="#515151" p-id="2874"></path><path d="M657.861815 818.869727H359.739152c-22.912664 0-41.542106-18.629441-41.542105-41.542105v-22.654639c-103.261805-64.764401-166.632868-178.450436-166.632868-300.960943 0-195.841355 159.356549-355.197904 355.197903-355.197904s355.197904 159.356549 355.197904 355.197904c0 120.446303-61.82291 233.151842-162.556065 298.329083v25.338104c-0.051605 22.861059-18.681046 41.4905-41.542106 41.4905z m-277.738648-61.92612h257.354634v-40.200373l15.48153-8.927682c90.721766-52.327571 147.02293-149.706395 147.02293-254.155118 0-161.678778-131.5414-293.271784-293.271784-293.271783-161.678778 0-293.271784 131.5414-293.271783 293.271783 0 106.254901 57.746107 204.459406 150.738497 256.270927l15.894371 8.876077v38.136169zM645.734617 913.926322H380.381192c-16.410422 0-29.827748-13.417326-29.827747-29.827748s13.417326-29.827748 29.827747-29.827748h265.40503c16.410422 0 29.827748 13.417326 29.827748 29.827748-0.051605 16.410422-13.468931 29.827748-29.879353 29.827748z" fill="#515151" p-id="2875"></path><path d="M525.701154 297.709822h-29.827748c-16.410422 0-29.827748-13.417326-29.827748-29.827748v-2.270624c0-16.410422 13.417326-29.827748 29.827748-29.827748h29.827748c16.410422 0 29.827748 13.417326 29.827748 29.827748v2.270624c0 16.410422-13.417326 29.827748-29.827748 29.827748zM660.390465 463.981454v-29.827747c0-16.410422 13.417326-29.827748 29.827748-29.827748h2.683465c16.410422 0 29.827748 13.417326 29.827748 29.827748v29.827747c0 16.410422-13.417326 29.827748-29.827748 29.827748h-2.683465c-16.410422 0-29.827748-13.417326-29.827748-29.827748z" fill="#515151" p-id="2876"></path></svg>